<svg width="29" height="28" viewBox="0 0 29 28" fill="none" xmlns="http://www.w3.org/2000/svg">
  <path
    d="M10.1304 9.02416C10.3007 9.1945 10.3007 9.47216 10.1304 9.6425C9.96002 9.81283 9.68235 9.81283 9.51202 9.6425C9.34169 9.47216 9.34169 9.1945 9.51202 9.02416C9.68235 8.85266 9.95885 8.85266 10.1304 9.02416"
    stroke="#E1E1E6" stroke-width="1.5" stroke-linecap="round" stroke-linejoin="round" />
  <path
    d="M15.2824 9.02416C15.4527 9.1945 15.4527 9.47216 15.2824 9.6425C15.1121 9.81283 14.8344 9.81283 14.6641 9.6425C14.4937 9.47216 14.4937 9.1945 14.6641 9.02416C14.8344 8.85266 15.1121 8.85266 15.2824 9.02416"
    stroke="#E1E1E6" stroke-width="1.5" stroke-linecap="round" stroke-linejoin="round" />
  <path
    d="M20.4355 9.02416C20.6059 9.1945 20.6059 9.47216 20.4355 9.6425C20.2652 9.81283 19.9875 9.81283 19.8172 9.6425C19.6469 9.47216 19.6469 9.1945 19.8172 9.02416C19.9875 8.85266 20.264 8.85266 20.4355 9.02416"
    stroke="#E1E1E6" stroke-width="1.5" stroke-linecap="round" stroke-linejoin="round" />
  <path
    d="M11.4732 15.1667H6.80654C5.51737 15.1667 4.47321 14.1225 4.47321 12.8333V5.83333C4.47321 4.54417 5.51737 3.5 6.80654 3.5H23.1399C24.429 3.5 25.4732 4.54417 25.4732 5.83333V9.33333"
    stroke="#8257E5" stroke-width="1.5" stroke-linecap="square" stroke-linejoin="round" />
  <path fill-rule="evenodd" clip-rule="evenodd"
    d="M15.4807 20.0538C15.4807 22.1713 18.4464 23.744 19.8079 24.3553C20.2372 24.5478 20.7167 24.5478 21.146 24.3553C22.5075 23.744 25.4732 22.1713 25.4732 20.0538V16.3298C25.4732 15.6275 25.0322 15.001 24.3719 14.763L21.8297 13.8483C20.9547 13.5333 19.9957 13.5333 19.1207 13.8483L16.582 14.7618C15.9217 14.9998 15.4807 15.6263 15.4807 16.3287L15.4807 20.0538Z"
    stroke="#E1E1E6" stroke-width="1.5" stroke-linecap="round" stroke-linejoin="round" />
</svg>
  