<svg width="368" height="429" viewBox="0 0 368 429" fill="none" xmlns="http://www.w3.org/2000/svg">
<path d="M175.067 44.5986C306.168 44.7103 306.167 44.5032 306.167 44.5032L358.478 96.7109L358.318 338.736L115.665 336.552L115.937 388.264L10.2599 388.012L10.4537 232.267L119.011 231.927L118.892 174.114L122.706 174.153L122.513 96.5779L175.067 44.5986Z" fill="#6B6B6B"/>
<path d="M280.105 40.0082H270.451V44.6263H280.105V40.0082Z" fill="#2EBCF1"/>
<path d="M297.384 40.0142H286.873V44.598H297.384V40.0142Z" fill="#2EBCF1"/>
<path d="M362.543 260.421H358.429V279.572H362.543V260.421Z" fill="#2EBCF1"/>
<path d="M115.873 370.348H111.506V379.047H115.873V370.348Z" fill="#2EBCF1"/>
<path d="M119.138 208.521H114.374V227.307H119.138V208.521Z" fill="#2EBCF1"/>
<path d="M10.4077 318.594H5.62784V333.174H10.4077V318.594Z" fill="#2EBCF1"/>
<path d="M120.057 241.027H115.116V249.336H120.057V241.027Z" fill="#2EBCF1"/>
<path d="M167.156 45.5983L159.094 53.4984L162.458 57.0734L170.52 49.1732L167.156 45.5983Z" fill="#2EBCF1"/>
<path d="M154.226 58.7768L144.238 68.6031L147.417 71.9682L157.405 62.1419L154.226 58.7768Z" fill="#FF00FF"/>
<path d="M323.185 118.489H314.445V122.419H323.185V118.489Z" fill="#2EBCF1"/>
<path d="M349.386 118.385H340.435V122.517H349.386V118.385Z" fill="#2EBCF1"/>
<path d="M340.409 118.38H331.458V122.513H340.409V118.38Z" fill="#FF00FF"/>
<path d="M279.255 182.468H275.414V200.244H279.255V182.468Z" fill="#2EBCF1"/>
<path d="M279.403 231.295H275.374V243.641H279.403V231.295Z" fill="#2EBCF1"/>
<path d="M279.208 215.297H275.324V227.563H279.208V215.297Z" fill="#FF00FF"/>
<path d="M284.218 182.638H279.665V200.109H284.218V182.638Z" fill="#FF00FF"/>
<path d="M118.929 178.462H114.06V200.427H118.929V178.462Z" fill="#FF00FF"/>
<path d="M286.877 40.0359H280.038V44.6243H286.877V40.0359Z" fill="#FF00FF"/>
<path d="M270.402 40.0414H263.31V44.6163H270.402V40.0414Z" fill="#FF00FF"/>
<path d="M115.144 232.333H111.419V249.286H115.144V232.333Z" fill="#FF00FF"/>
<path d="M10.4329 259.216H5.7019V275.762H10.4329V259.216Z" fill="#FF00FF"/>
<path d="M115.89 379.35H111.496V387.878H115.89V379.35Z" fill="#FF00FF"/>
<path d="M193.729 361.943V364H186.918V361.943H193.729ZM187.779 351.203V364H185.143V351.203H187.779ZM192.842 356.415V358.419H186.918V356.415H192.842ZM193.721 351.203V353.269H186.918V351.203H193.721ZM197.588 356.521V364H195.057V354.49H197.43L197.588 356.521ZM197.219 358.911H196.533C196.533 358.208 196.624 357.575 196.806 357.013C196.987 356.444 197.242 355.961 197.57 355.562C197.898 355.158 198.288 354.851 198.739 354.64C199.196 354.423 199.706 354.314 200.269 354.314C200.714 354.314 201.121 354.379 201.49 354.508C201.859 354.637 202.176 354.842 202.439 355.123C202.709 355.404 202.914 355.776 203.055 356.239C203.201 356.702 203.274 357.268 203.274 357.936V364H200.726V357.927C200.726 357.505 200.667 357.177 200.55 356.942C200.433 356.708 200.26 356.544 200.031 356.45C199.809 356.351 199.533 356.301 199.205 356.301C198.865 356.301 198.569 356.368 198.317 356.503C198.071 356.638 197.866 356.825 197.702 357.065C197.544 357.3 197.424 357.575 197.342 357.892C197.26 358.208 197.219 358.548 197.219 358.911ZM209.857 354.49V356.283H204.32V354.49H209.857ZM205.691 352.144H208.223V361.135C208.223 361.41 208.258 361.621 208.328 361.768C208.404 361.914 208.516 362.017 208.662 362.075C208.809 362.128 208.993 362.154 209.216 362.154C209.374 362.154 209.515 362.148 209.638 362.137C209.767 362.119 209.875 362.102 209.963 362.084L209.972 363.947C209.755 364.018 209.521 364.073 209.269 364.114C209.017 364.155 208.738 364.176 208.434 364.176C207.877 364.176 207.391 364.085 206.975 363.903C206.564 363.716 206.248 363.417 206.025 363.007C205.803 362.597 205.691 362.058 205.691 361.39V352.144ZM213.83 356.564V364H211.299V354.49H213.681L213.83 356.564ZM216.695 354.429L216.651 356.775C216.528 356.758 216.379 356.743 216.203 356.731C216.033 356.714 215.878 356.705 215.737 356.705C215.38 356.705 215.069 356.752 214.806 356.846C214.548 356.934 214.331 357.065 214.155 357.241C213.985 357.417 213.856 357.631 213.769 357.883C213.687 358.135 213.64 358.422 213.628 358.744L213.118 358.586C213.118 357.971 213.18 357.405 213.303 356.89C213.426 356.368 213.604 355.914 213.839 355.527C214.079 355.141 214.372 354.842 214.718 354.631C215.063 354.42 215.459 354.314 215.904 354.314C216.045 354.314 216.188 354.326 216.335 354.35C216.481 354.367 216.602 354.394 216.695 354.429ZM222.725 361.855V357.619C222.725 357.314 222.675 357.054 222.575 356.837C222.476 356.614 222.32 356.441 222.109 356.318C221.904 356.195 221.638 356.134 221.31 356.134C221.028 356.134 220.785 356.184 220.58 356.283C220.375 356.377 220.217 356.515 220.105 356.696C219.994 356.872 219.938 357.08 219.938 357.32H217.407C217.407 356.916 217.501 356.532 217.688 356.169C217.876 355.806 218.148 355.486 218.506 355.211C218.863 354.93 219.288 354.71 219.78 354.552C220.278 354.394 220.835 354.314 221.45 354.314C222.188 354.314 222.845 354.438 223.419 354.684C223.993 354.93 224.444 355.299 224.772 355.791C225.106 356.283 225.273 356.898 225.273 357.637V361.706C225.273 362.228 225.306 362.655 225.37 362.989C225.435 363.317 225.528 363.604 225.651 363.851V364H223.094C222.971 363.742 222.877 363.42 222.812 363.033C222.754 362.641 222.725 362.248 222.725 361.855ZM223.059 358.208L223.076 359.641H221.661C221.327 359.641 221.037 359.679 220.791 359.755C220.545 359.831 220.343 359.939 220.185 360.08C220.026 360.215 219.909 360.373 219.833 360.555C219.763 360.736 219.728 360.936 219.728 361.152C219.728 361.369 219.777 361.565 219.877 361.741C219.977 361.911 220.12 362.046 220.308 362.146C220.495 362.239 220.715 362.286 220.967 362.286C221.348 362.286 221.679 362.21 221.96 362.058C222.241 361.905 222.458 361.718 222.61 361.495C222.769 361.272 222.851 361.062 222.856 360.862L223.524 361.935C223.431 362.175 223.302 362.424 223.138 362.682C222.979 362.939 222.777 363.183 222.531 363.411C222.285 363.634 221.989 363.818 221.644 363.965C221.298 364.105 220.888 364.176 220.413 364.176C219.81 364.176 219.262 364.056 218.77 363.815C218.283 363.569 217.896 363.232 217.609 362.805C217.328 362.371 217.188 361.879 217.188 361.328C217.188 360.83 217.281 360.388 217.469 360.001C217.656 359.614 217.932 359.289 218.295 359.025C218.664 358.756 219.124 358.554 219.675 358.419C220.226 358.278 220.864 358.208 221.591 358.208H223.059ZM232.841 361.926V350.5H235.39V364H233.096L232.841 361.926ZM226.829 359.359V359.175C226.829 358.448 226.911 357.789 227.075 357.197C227.239 356.6 227.479 356.087 227.796 355.659C228.112 355.231 228.502 354.9 228.965 354.666C229.428 354.432 229.955 354.314 230.547 354.314C231.104 354.314 231.59 354.432 232.006 354.666C232.428 354.9 232.785 355.234 233.078 355.668C233.377 356.096 233.617 356.603 233.799 357.188C233.98 357.769 234.112 358.404 234.194 359.096V359.5C234.112 360.162 233.98 360.777 233.799 361.346C233.617 361.914 233.377 362.412 233.078 362.84C232.785 363.262 232.428 363.59 232.006 363.824C231.584 364.059 231.092 364.176 230.529 364.176C229.938 364.176 229.41 364.056 228.947 363.815C228.49 363.575 228.104 363.238 227.787 362.805C227.477 362.371 227.239 361.861 227.075 361.275C226.911 360.689 226.829 360.051 226.829 359.359ZM229.36 359.175V359.359C229.36 359.752 229.39 360.118 229.448 360.458C229.513 360.798 229.615 361.1 229.756 361.363C229.902 361.621 230.09 361.823 230.318 361.97C230.553 362.11 230.837 362.181 231.171 362.181C231.604 362.181 231.962 362.084 232.243 361.891C232.524 361.691 232.738 361.419 232.885 361.073C233.037 360.728 233.125 360.329 233.148 359.878V358.727C233.131 358.357 233.078 358.026 232.99 357.733C232.908 357.435 232.785 357.18 232.621 356.969C232.463 356.758 232.264 356.594 232.023 356.477C231.789 356.359 231.511 356.301 231.188 356.301C230.86 356.301 230.579 356.377 230.345 356.529C230.11 356.676 229.92 356.878 229.773 357.136C229.633 357.394 229.527 357.698 229.457 358.05C229.393 358.396 229.36 358.771 229.36 359.175ZM242.5 361.855V357.619C242.5 357.314 242.45 357.054 242.351 356.837C242.251 356.614 242.096 356.441 241.885 356.318C241.68 356.195 241.413 356.134 241.085 356.134C240.804 356.134 240.561 356.184 240.355 356.283C240.15 356.377 239.992 356.515 239.881 356.696C239.77 356.872 239.714 357.08 239.714 357.32H237.183C237.183 356.916 237.276 356.532 237.464 356.169C237.651 355.806 237.924 355.486 238.281 355.211C238.639 354.93 239.063 354.71 239.556 354.552C240.054 354.394 240.61 354.314 241.226 354.314C241.964 354.314 242.62 354.438 243.194 354.684C243.769 354.93 244.22 355.299 244.548 355.791C244.882 356.283 245.049 356.898 245.049 357.637V361.706C245.049 362.228 245.081 362.655 245.146 362.989C245.21 363.317 245.304 363.604 245.427 363.851V364H242.869C242.746 363.742 242.652 363.42 242.588 363.033C242.529 362.641 242.5 362.248 242.5 361.855ZM242.834 358.208L242.852 359.641H241.437C241.103 359.641 240.812 359.679 240.566 359.755C240.32 359.831 240.118 359.939 239.96 360.08C239.802 360.215 239.685 360.373 239.608 360.555C239.538 360.736 239.503 360.936 239.503 361.152C239.503 361.369 239.553 361.565 239.652 361.741C239.752 361.911 239.896 362.046 240.083 362.146C240.271 362.239 240.49 362.286 240.742 362.286C241.123 362.286 241.454 362.21 241.735 362.058C242.017 361.905 242.233 361.718 242.386 361.495C242.544 361.272 242.626 361.062 242.632 360.862L243.3 361.935C243.206 362.175 243.077 362.424 242.913 362.682C242.755 362.939 242.553 363.183 242.307 363.411C242.061 363.634 241.765 363.818 241.419 363.965C241.073 364.105 240.663 364.176 240.188 364.176C239.585 364.176 239.037 364.056 238.545 363.815C238.059 363.569 237.672 363.232 237.385 362.805C237.104 362.371 236.963 361.879 236.963 361.328C236.963 360.83 237.057 360.388 237.244 360.001C237.432 359.614 237.707 359.289 238.07 359.025C238.439 358.756 238.899 358.554 239.45 358.419C240.001 358.278 240.64 358.208 241.366 358.208H242.834Z" fill="#E1E1E6"/>
</svg>
