<svg width="33" height="29" viewBox="0 0 33 29" fill="none" xmlns="http://www.w3.org/2000/svg">
<g clip-path="url(#clip0_1_2444)">
<path d="M18.1474 10.3118C18.1569 10.3167 18.1639 10.32 18.1743 10.3256C18.1867 10.3248 18.1991 10.3241 18.2115 10.3233C18.1902 10.3194 18.1688 10.3156 18.1474 10.3118ZM26.4647 12.4819C26.4559 12.5078 26.447 12.5338 26.4382 12.5597C26.4202 12.6083 26.4001 12.6562 26.3823 12.7048C26.368 12.7375 26.3565 12.771 26.3422 12.8037C26.3235 12.8432 26.2961 12.8785 26.2711 12.9148C26.2486 12.9499 26.2237 12.9837 26.1999 13.018C26.2054 13.0348 26.2156 13.0482 26.2165 13.0683C26.2165 13.0685 26.2165 13.0686 26.2165 13.0688C26.4177 12.9284 26.6284 12.8549 26.8193 12.8659C26.9365 12.8726 27.0461 12.9101 27.1411 12.9814C27.2224 13.0423 28.9129 18.5983 28.8666 18.6524C28.852 18.6695 28.7169 18.7227 28.5663 18.7705C28.2351 18.8758 27.9281 19.0352 27.315 19.4202C26.6459 19.8405 26.3092 20.0008 25.9031 20.0927C24.9259 20.3137 22.9233 19.6086 20.4503 18.1729C17.5027 16.4615 17.0775 15.6898 18.0775 13.8663C18.5948 12.9229 19.0005 12.6845 19.3811 13.0926C19.3765 13.0862 19.371 13.0784 19.3677 13.0738C19.351 13.0519 19.3359 13.0297 19.3214 13.0066C19.3024 12.9742 19.2848 12.941 19.2716 12.9063C19.2608 12.8768 19.251 12.847 19.2409 12.8173C19.236 12.8022 19.2315 12.7869 19.2268 12.7717C19.1909 12.7209 19.1543 12.6706 19.1212 12.6184C19.1107 12.6017 19.1002 12.585 19.0899 12.5683C19.0842 12.5624 19.0776 12.5573 19.0727 12.551C19.0618 12.5382 19.0512 12.5252 19.0406 12.5122C19.0203 12.5228 15.8481 12.5387 11.9729 12.5476C4.13094 12.5657 4.75113 12.5456 4.69545 12.7833C4.67414 12.8742 3.64723 16.3071 2.4135 20.4117C1.17977 24.5162 0.170513 27.9074 0.170776 27.9474C0.171835 28.1079 0.132433 28.1023 1.38335 28.1184C5.18247 28.1675 30.0795 28.1301 31.5277 28.0732L32.0056 28.0544V27.8252C32.0056 27.5634 31.9385 27.3108 31.1751 24.6972C29.4722 18.867 27.5888 12.6787 27.4894 12.5872C27.4728 12.5719 27.228 12.5528 26.9454 12.5447C26.6444 12.5361 26.5046 12.5348 26.4647 12.4819ZM9.19963 12.9138C11.9721 12.9229 15.241 12.9702 15.8142 13.0361C16.005 13.058 16.0081 13.0679 16.0079 13.6578C16.0074 15.622 14.5261 16.7351 11.7169 16.8824C10.6138 16.9402 10.4251 16.9859 9.9615 17.3077C9.1631 17.8619 8.38376 18.1259 7.28313 18.2147C6.8296 18.2513 6.51108 18.2656 6.39012 18.2548C5.12309 18.1417 3.7748 17.7872 3.77392 17.567C3.7737 17.5087 3.92132 16.9955 4.5104 15.0064C4.94751 13.5305 5.11329 12.988 5.13257 12.9709C5.16362 12.9433 5.78307 12.9263 6.71066 12.9181C7.40634 12.912 8.27546 12.9108 9.19963 12.9138ZM17.4471 12.9355C17.7935 12.9327 18.1246 12.9373 18.1246 12.9518C18.1246 12.9611 18.0528 13.0743 17.965 13.2034C17.3172 14.1551 17.0211 15.178 17.1879 15.8879C17.6087 17.6784 24.2204 21.0248 26.1857 20.442C26.6339 20.309 26.8213 20.2118 27.9322 19.5357C28.2757 19.3267 28.8191 19.0802 28.9365 19.0802C29.0291 19.0802 28.9932 18.9785 29.5297 20.7625C29.9195 22.0588 29.9059 21.9081 29.6399 21.9832C27.4755 22.5943 27.9753 24.7888 30.3851 25.2549C30.9065 25.3558 30.9029 25.3544 30.9417 25.4697C31.148 26.0822 31.6144 27.6922 31.592 27.7143C31.5323 27.7731 12.0493 27.7496 9.58613 27.6878C8.53608 27.6614 8.55903 27.684 8.42802 26.5438C8.23167 24.835 7.52533 24.4278 4.61975 24.3485C3.26278 24.3115 3.0477 24.2135 2.61557 23.4349C2.19863 22.6838 2.19778 22.7344 2.65314 21.1935C3.09044 19.7137 3.58004 18.079 3.60074 18.0298C3.61151 18.0041 3.67431 18.0204 3.82783 18.0886C5.82421 18.9758 8.41354 18.8224 10.1032 17.7169C10.6828 17.3376 10.7814 17.3114 11.7169 17.2881C14.7528 17.2125 16.2812 16.0329 16.4454 13.6389C16.4873 13.0278 16.4939 13.0088 16.6788 12.9632C16.7394 12.9483 17.1008 12.9382 17.4471 12.9355ZM23.0871 16.4615C23.063 16.492 23.0181 16.5512 23.0001 16.5733C23.0054 16.5732 23.0097 16.5726 23.0148 16.5725C23.0406 16.5365 23.0641 16.4991 23.0871 16.4615ZM11.9848 18.6247C11.1072 18.6168 9.71294 18.8323 7.75311 19.2766C5.93568 19.6887 5.44337 19.9397 4.81821 20.7731C3.592 22.4076 4.11596 23.7565 6.06107 23.9728C8.16864 24.2071 12.7217 23.0239 13.9595 21.9202C15.1344 20.8725 14.485 19.2261 12.692 18.7067C12.5124 18.6547 12.2773 18.6273 11.9848 18.6247ZM17.6916 18.7983C17.4216 18.816 17.1518 18.8967 16.8565 19.0329C16.0267 19.4154 15.6816 20.082 15.2413 22.1528C14.8705 23.8962 14.7422 24.0624 13.3098 24.653C11.5526 25.3775 11.1491 25.7105 11.3555 26.2654C11.5531 26.797 13.4713 27.1417 16.8556 27.2537C20.6647 27.3799 24.5119 27.1298 25.8683 26.668C27.5583 26.0925 27.6372 23.7804 26.0159 22.3373C25.4768 21.8575 24.9832 21.678 23.1381 21.291C21.4276 20.9322 21.1842 20.8276 20.1927 20.0257C19.2189 19.238 18.5692 18.858 17.9627 18.8019C17.8717 18.7935 17.7816 18.7924 17.6916 18.7983ZM12.1238 19.0152C12.2064 19.018 12.2766 19.0245 12.3326 19.0349C13.8032 19.3096 14.5943 20.7691 13.7157 21.5865C12.9105 22.3357 10.0251 23.2815 7.75311 23.5411C6.02755 23.7382 4.90419 23.4523 4.66027 22.7541C4.41439 22.0502 5.118 20.7581 6.03641 20.227C6.8485 19.7573 10.8843 18.9735 12.1238 19.0152ZM17.6862 19.1859C18.2668 19.2167 18.9866 19.6056 19.895 20.3313C21.04 21.246 21.1491 21.2899 23.4827 21.7777C25.5848 22.2171 26.5377 23.0086 26.7118 24.4597C26.9231 26.2203 25.7301 26.7028 20.835 26.8365C18.942 26.8881 18.7575 26.8882 16.981 26.8379C14.1124 26.7568 11.9806 26.4704 11.8057 26.1427C11.6511 25.853 11.9011 25.6943 13.7505 24.9077C15.1011 24.3333 15.3144 24.0296 15.7136 22.1129C16.1375 20.0777 16.7186 19.1346 17.6862 19.1859ZM29.9634 22.3308C29.9862 22.3314 30.0002 22.335 30.0002 22.3424C30.0002 22.3472 30.1136 22.7195 30.2521 23.1696C30.6115 24.3378 30.7585 24.8603 30.7364 24.892C30.712 24.9271 30.7245 24.9285 30.3918 24.852C28.5546 24.4291 28.1343 23.0045 29.6649 22.3878C29.7478 22.3545 29.895 22.329 29.9634 22.3308ZM2.01782 23.3939C2.03319 23.369 2.112 23.4842 2.2462 23.7276C2.70512 24.5602 3.05793 24.6933 4.9644 24.7536C6.2267 24.7936 6.4294 24.8223 6.92423 25.0316C7.721 25.3687 7.86376 25.6101 8.01704 26.88C8.04288 27.0941 8.09497 27.3602 8.13282 27.4712C8.21889 27.7236 8.24742 27.7072 7.68188 27.7314C7.0694 27.7577 2.40432 27.7534 1.643 27.7259C0.926051 27.7001 0.76565 27.6628 0.76565 27.5221C0.76565 27.4215 1.95785 23.4911 2.01782 23.3939Z" fill="#8055E3" stroke="#8055E3" stroke-width="0.4"/>
<path d="M22.8654 2.1404C20.6301 2.1322 18.3984 3.21876 17.5323 5.32634C16.8865 6.89771 17.3871 9.84971 18.6603 11.9782C18.6909 12.0294 18.702 12.059 18.716 12.0916C18.7202 12.0952 18.7244 12.0992 18.7286 12.1035C18.7379 12.1134 18.7482 12.1288 18.7562 12.1413C18.765 12.1555 18.7745 12.1693 18.7821 12.184C18.7884 12.1933 18.7928 12.2033 18.7975 12.2133C18.7992 12.217 18.8006 12.2205 18.8017 12.2239C18.8229 12.2507 18.8442 12.2773 18.865 12.3043C18.8826 12.3285 18.9 12.3527 18.9164 12.3775C18.9302 12.397 18.9384 12.4188 18.949 12.4396C18.9554 12.4506 18.9588 12.4626 18.9627 12.4744C18.9669 12.4779 18.971 12.482 18.9749 12.4869C18.9844 12.4987 18.993 12.5111 18.9976 12.5251C19.0041 12.5401 19.0115 12.5549 19.0163 12.5704C19.0195 12.5824 19.0247 12.5939 19.0279 12.6059C19.0305 12.6147 19.0329 12.6235 19.0358 12.6321L19.1811 12.8559C19.9499 14.0395 20.7114 15.0191 21.9675 16.4405C22.6988 17.268 22.7713 17.3277 22.9449 17.2449C23.2187 17.1144 25.7071 13.8873 26.3907 12.7763L26.4933 12.6097H26.5099C26.5107 12.6083 26.5114 12.607 26.5123 12.6057C26.5187 12.5922 26.5254 12.5788 26.5333 12.5658C26.5448 12.5455 26.5571 12.5256 26.5698 12.5058C26.5757 12.4963 26.5815 12.4868 26.5873 12.4772C26.5932 12.4602 26.5992 12.4431 26.6086 12.4272C26.6217 12.4027 26.6359 12.3787 26.651 12.3551C26.6628 12.336 26.6735 12.3163 26.686 12.2976C26.6899 12.2917 26.6941 12.2868 26.6984 12.2824C26.6992 12.28 26.6995 12.2776 26.7004 12.2753C26.7085 12.2554 26.7172 12.2357 26.7275 12.2165C26.7405 12.1923 26.7541 12.1682 26.7694 12.145C26.7829 12.1259 26.7983 12.1077 26.8119 12.0886C26.8132 12.087 26.8144 12.0853 26.8156 12.0836C26.834 12.0423 26.8533 11.9983 26.8993 11.9204C28.5057 9.20101 28.8697 6.48135 27.8563 4.76929C26.8133 3.00718 24.8378 2.14763 22.8654 2.1404ZM22.6734 2.57492C25.2425 2.53326 27.7961 4.14144 27.9027 6.81269C27.9985 9.21258 26.7295 11.8204 23.5237 15.8123C23.1652 16.2587 22.8609 16.6347 22.8473 16.6479C22.7736 16.7199 20.8434 14.3926 20.111 13.3486C17.6923 9.90083 17.0864 6.47421 18.5566 4.55828C19.5844 3.2189 21.1319 2.59991 22.6734 2.57492ZM22.7835 3.79144C21.4749 3.80948 20.1731 4.41012 19.5234 5.58436C18.4759 7.47756 20.0151 9.75115 22.4722 9.94005C25.3416 10.1606 27.3632 7.67317 26.0856 5.49392C25.4079 4.33798 24.0922 3.7734 22.7835 3.79144ZM22.7411 4.23621C22.8506 4.23285 22.9607 4.23443 23.071 4.24111C23.6592 4.27673 24.2523 4.45801 24.7824 4.8148C26.77 6.15252 26.0829 8.87378 23.6186 9.4239C21.7411 9.84304 19.8818 8.70378 19.7354 7.04455C19.5942 5.44476 21.0985 4.28665 22.7411 4.23621ZM18.7538 12.4332C18.7593 12.4422 18.7649 12.4511 18.7705 12.46C18.77 12.4587 18.7695 12.4574 18.769 12.456C18.7637 12.4485 18.759 12.4408 18.7538 12.4332ZM27.8569 12.6277C27.8591 12.6265 27.8516 12.6291 27.8496 12.6306C27.8476 12.6321 27.8459 12.6338 27.844 12.6352C27.8444 12.6352 27.8448 12.6351 27.8452 12.635C27.8491 12.6326 27.8528 12.6299 27.8569 12.6277Z" fill="#E1E1E6" stroke="#E1E1E6" stroke-width="0.5"/>
<path d="M22.4677 16.9229C22.1037 16.5559 20.899 15.1455 20.3983 14.5C19.3326 13.1259 18.3044 11.3919 17.9131 10.3086C17.795 9.98149 17.6199 9.39526 17.5242 9.00585C17.365 8.35847 17.3498 8.19599 17.3467 7.10839L17.3434 5.91894L17.5393 5.4227C18.145 3.88863 19.519 2.77749 21.3467 2.3438C22.1327 2.15727 23.3082 2.13341 24.0934 2.28805C25.1625 2.49861 26.0466 2.93677 26.8482 3.65331C28.0092 4.69108 28.4319 5.73313 28.3591 7.37874C28.3013 8.68698 27.914 9.94243 27.092 11.4854C26.5676 12.4697 26.2376 12.9827 25.3533 14.1885C24.0154 16.0129 23.0179 17.2187 22.8469 17.2187C22.7998 17.2187 22.6292 17.0856 22.4677 16.9229ZM23.6945 15.6465C25.1865 13.7453 25.8724 12.7513 26.5962 11.4414C28.4407 8.10308 28.388 5.49894 26.4424 3.83556C25.5533 3.07553 24.4166 2.6416 23.1199 2.56723C20.6896 2.42785 18.572 3.72586 17.9248 5.75157C17.7974 6.15044 17.7813 6.31911 17.7848 7.22167C17.7879 8.04086 17.8145 8.34694 17.9203 8.77929C18.3056 10.3538 19.0927 11.9859 20.2188 13.5455C21.0934 14.7567 22.6861 16.6527 22.8282 16.6519C22.8709 16.6516 23.2608 16.1992 23.6945 15.6465Z" fill="#E1E1E6"/>
</g>
<defs>
<clipPath id="clip0_1_2444">
<rect width="32" height="29" fill="white" transform="translate(0.0621338)"/>
</clipPath>
</defs>
</svg>
