<?xml version="1.0" encoding="UTF-8" standalone="no"?>
<!-- Created with Inkscape (http://www.inkscape.org/) -->

<svg
   version="1.1"
   id="svg2204"
   width="34"
   height="28"
   viewBox="0 0 1024 1024"
   sodipodi:docname="map.png"
   xml:space="preserve"
   inkscape:version="1.2.2 (1:1.2.2+202212051552+b0a8486541)"
   xmlns:inkscape="http://www.inkscape.org/namespaces/inkscape"
   xmlns:sodipodi="http://sodipodi.sourceforge.net/DTD/sodipodi-0.dtd"
   xmlns="http://www.w3.org/2000/svg"
   xmlns:svg="http://www.w3.org/2000/svg"><defs
     id="defs2208" /><sodipodi:namedview
     id="namedview2206"
     pagecolor="#505050"
     bordercolor="#eeeeee"
     borderopacity="1"
     inkscape:showpageshadow="0"
     inkscape:pageopacity="0"
     inkscape:pagecheckerboard="0"
     inkscape:deskcolor="#505050"
     showgrid="false"
     inkscape:zoom="0.5"
     inkscape:cx="323"
     inkscape:cy="660"
     inkscape:window-width="1280"
     inkscape:window-height="987"
     inkscape:window-x="0"
     inkscape:window-y="0"
     inkscape:window-maximized="1"
     inkscape:current-layer="g2210" /><g
     inkscape:groupmode="layer"
     inkscape:label="Image"
     id="g2210"><g
       id="g2366"
       transform="translate(10.470426,57.136119)" /><g
       id="g2248"
       transform="matrix(1.1297575,0,0,0.98271031,-87.83496,24.7321)"><path
         id="path2368"
         style="display:inline;fill:#8055e3;stroke-width:0.990933"
         d="m 579.54731,301.59307 c 0.30228,0.1753 0.52746,0.28898 0.85938,0.48828 0.39568,-0.0298 0.79177,-0.0535 1.1875,-0.082 -0.6823,-0.1356 -1.36466,-0.27025 -2.04688,-0.40625 z m 265.45899,76.62695 c -0.27894,0.91695 -0.56391,1.83203 -0.84571,2.74805 -0.57454,1.7148 -1.21417,3.40665 -1.7832,5.12304 -0.45527,1.1539 -0.82528,2.33779 -1.2793,3.49219 -0.59661,1.3955 -1.47364,2.64043 -2.27148,3.92383 -0.71762,1.23941 -1.51081,2.43154 -2.27149,3.64453 0.17635,0.59371 0.50085,1.0661 0.5293,1.77539 2.4e-4,0.006 -1.9e-4,0.0117 0,0.0176 6.4236,-4.95705 13.14737,-7.55136 19.24023,-7.16602 3.73992,0.2366 7.23734,1.56379 10.27149,4.08008 2.59439,2.15174 56.54901,198.33437 55.07226,200.2461 -0.46606,0.60358 -4.7803,2.47997 -9.58593,4.16992 -10.56992,3.71682 -20.36905,9.3461 -39.93555,22.9414 -21.35591,14.83891 -32.10261,20.50086 -45.06445,23.74415 -31.18801,7.80371 -95.10342,-17.09218 -174.03321,-67.78907 -94.07916,-60.42763 -107.65025,-87.67815 -75.73437,-152.0664 16.51116,-33.31036 29.45979,-41.72822 41.60742,-27.32032 -0.14613,-0.22529 -0.32071,-0.49907 -0.42578,-0.66406 -0.53386,-0.7731 -1.01544,-1.55545 -1.47852,-2.37305 -0.60628,-1.14372 -1.16742,-2.31501 -1.58984,-3.54101 -0.34505,-1.0414 -0.65765,-2.09223 -0.98047,-3.14063 -0.15549,-0.53585 -0.30055,-1.07507 -0.44922,-1.61328 -1.14581,-1.79053 -2.31443,-3.56711 -3.37109,-5.41211 -0.33547,-0.58809 -0.66933,-1.1779 -1,-1.76953 -0.17988,-0.20625 -0.39059,-0.38546 -0.54688,-0.61133 -0.34877,-0.45059 -0.68552,-0.91024 -1.02539,-1.36718 -0.64733,0.37346 -101.89317,0.93466 -225.57812,1.25 -250.28686,0.6381 -230.49262,-0.0704 -232.26953,8.32031 -0.68032,3.21241 -33.45562,124.42878 -72.832034,269.36133 -39.37643,144.93224 -71.5884987,264.67719 -71.5800781,266.08984 0.033782,5.66582 -1.2237984,5.46876 38.7011721,6.03906 121.2549,1.73202 915.8809,0.41253 962.10547,-1.59765 l 15.25,-0.66407 v -8.09375 c 0,-9.24295 -2.1399,-18.16197 -26.50586,-110.45117 C 940.99556,603.68202 880.88343,385.17148 877.71137,381.93877 c -0.52991,-0.54003 -8.34257,-1.21538 -17.36132,-1.5 -9.608,-0.30321 -14.07084,-0.35009 -15.34375,-2.21875 z m -551.04102,15.25195 c 88.48875,0.32191 192.81991,1.99066 211.11523,4.31836 6.0892,0.77476 6.18664,1.12191 6.18164,21.95118 -0.017,69.35682 -47.29428,108.66138 -136.95507,113.86132 -35.20706,2.04195 -41.22882,3.65603 -56.02539,15.01953 -25.48212,19.56991 -50.35606,28.88936 -85.48438,32.0254 -14.47523,1.29212 -24.6414,1.79738 -28.50195,1.41601 -40.43922,-3.9945 -83.4718,-16.5108 -83.5,-24.28711 -0.007,-2.05657 4.70442,-20.17863 23.50586,-90.41406 13.9509,-52.1161 19.24226,-71.27103 19.85742,-71.875 0.99104,-0.97301 20.76196,-1.57335 50.36719,-1.86328 22.20373,-0.21746 49.9432,-0.25965 79.43945,-0.15235 z m 263.23242,0.76563 c 11.05305,-0.0968 21.62305,0.0643 21.62305,0.57422 0,0.33003 -2.29285,4.32875 -5.0957,8.88476 -20.67569,33.60705 -30.12516,69.72497 -24.80079,94.79297 13.42856,63.22238 224.45358,181.38537 287.17774,160.80469 14.30482,-4.6938 20.28745,-8.12802 55.74219,-32 10.96422,-7.38232 28.30805,-16.08594 32.05468,-16.08594 2.95426,0 1.81036,-3.58992 18.93164,59.40235 12.44123,45.77302 12.00755,40.45366 3.51758,43.10546 -69.08031,21.57847 -53.12795,99.06718 23.78321,115.5254 16.64397,3.56157 16.52895,3.51283 17.76757,7.58203 6.58439,21.62997 21.47013,78.47721 20.75393,79.25781 -1.9055,2.07693 -623.73456,1.24867 -702.35158,-0.93555 -33.51418,-0.93113 -32.78168,-0.13203 -36.96289,-40.39258 -6.26687,-60.33933 -28.81095,-74.7176 -121.54688,-77.51757 C 104.48148,795.92801 97.617,792.46674 83.824655,764.97588 70.517557,738.45216 70.490281,740.24028 85.023873,685.8294 98.980972,633.57687 114.60743,575.85706 115.26801,574.11846 c 0.34385,-0.9049 2.34813,-0.33082 7.24805,2.07812 63.71746,31.32581 146.36007,25.9097 200.28711,-13.12695 18.49917,-13.39133 21.64832,-14.3161 51.50391,-15.13867 96.89488,-2.6696 145.67883,-44.32272 150.91797,-128.85547 1.33716,-21.57939 1.54713,-22.24929 7.45117,-23.85938 1.93177,-0.52663 13.46844,-0.88172 24.52148,-0.97851 z m 180.00781,124.50586 c -0.77044,1.0751 -2.20362,3.16655 -2.77734,3.94726 0.16877,-0.006 0.30602,-0.027 0.4707,-0.0293 0.82132,-1.27232 1.57409,-2.58986 2.30664,-3.91797 z m -354.34765,76.38086 c -28.00829,-0.27609 -72.50952,7.33171 -135.06055,23.02148 -58.00621,14.55004 -73.71889,23.41388 -93.67187,52.83985 -39.13643,57.71709 -22.4134,105.3459 39.66796,112.98242 67.26639,8.27422 212.58499,-33.50554 252.0918,-72.47852 37.49852,-36.99182 16.77082,-95.12755 -40.45703,-113.46875 -5.72983,-1.83646 -13.23422,-2.80446 -22.57031,-2.89648 z m 182.14258,6.13086 c -8.61724,0.62392 -17.22862,3.47554 -26.6543,8.2832 -26.48274,13.50796 -37.49846,37.0456 -51.55274,110.16602 -11.83198,61.55902 -15.92942,67.4278 -61.64453,88.28125 -56.08621,25.58442 -68.96368,37.34035 -62.37695,56.93554 6.30951,18.7705 67.52991,30.94076 175.54688,34.89844 121.57108,4.45425 244.36311,-4.37578 287.65234,-20.68359 53.94137,-20.32069 56.45693,-101.9597 4.71289,-152.91602 -17.20609,-16.94416 -32.96049,-23.28128 -91.85156,-36.94726 -54.59128,-12.66821 -62.36015,-16.36088 -94.00586,-44.67774 -31.08223,-27.81264 -51.81654,-41.2323 -71.17578,-43.21094 -2.90396,-0.29679 -5.77821,-0.3369 -8.65039,-0.1289 z m -177.70704,7.66015 c 2.63728,0.0983 4.87889,0.32599 6.66602,0.69532 46.93594,9.69996 72.18379,61.23318 44.14258,90.09765 -25.69963,26.45405 -117.79066,59.85133 -190.30469,69.01563 -55.0739,6.96011 -90.92776,-3.13267 -98.71289,-27.78907 -7.84743,-24.85347 14.60935,-70.47772 43.92188,-89.23242 25.91906,-16.5836 154.72764,-44.26126 194.2871,-42.78711 z m 177.53516,6.02735 c 18.52954,1.08826 41.50256,14.81886 70.49609,40.44336 36.54496,32.29824 40.02512,33.84994 114.50782,51.07422 67.08977,15.51455 97.505,43.46218 103.0625,94.70117 6.74251,62.16694 -31.33359,79.20292 -187.56836,83.92383 -60.41758,1.82544 -66.30548,1.82866 -123.00781,0.0527 -91.55351,-2.86607 -159.59491,-12.97765 -165.17774,-24.54883 -4.93475,-10.22849 3.04471,-15.83473 62.07227,-43.60742 43.10666,-20.28198 49.91459,-31.00607 62.65625,-98.6875 13.52866,-71.8632 32.07633,-105.16547 62.95898,-103.35156 z M 956.67231,725.9876 c 0.72762,0.0212 1.17578,0.14941 1.17578,0.41016 0,0.17048 3.61788,13.31597 8.03906,29.21093 11.47275,41.24659 16.16174,59.69889 15.45704,60.81836 -0.77951,1.23833 -0.37901,1.28914 -10.9961,-1.41406 -58.63949,-14.93039 -72.05329,-65.23473 -23.20117,-87.00977 2.64529,-1.17892 7.34253,-2.07929 9.52539,-2.01562 z M 64.74653,763.52861 c 0.49067,-0.87912 3.006123,3.18709 7.289062,11.78321 14.647449,29.3981 25.907798,34.09968 86.755858,36.22851 40.28832,1.40964 46.75766,2.42567 62.55078,9.81641 25.43032,11.90055 29.98677,20.42559 34.87891,65.26758 0.82481,7.56019 2.48714,16.95318 3.69531,20.87304 2.74717,8.91348 3.65766,8.33389 -14.39258,9.18946 -19.54808,0.92649 -168.441384,0.77707 -192.740231,-0.19336 -22.882498,-0.91387 -28.001953,-2.22833 -28.001953,-7.19727 0,-3.55106 38.050902,-142.3377 39.964844,-145.76758 z"
         transform="matrix(0.88745972,0,0,1.0175939,75.680996,38.451648)" /><path
         id="path2264"
         style="display:inline;fill:#e1e1e6;stroke-width:1.00474;fill-opacity:1"
         d="m 723.6432,51.740669 c -63.31417,-0.29456 -126.52691,38.747417 -151.06034,114.476091 -18.29167,56.46183 -4.11272,162.53193 31.95187,239.01174 0.86718,1.83903 1.18063,2.90409 1.57733,4.07557 0.11985,0.12814 0.23867,0.27086 0.35599,0.42847 0.26356,0.35405 0.55608,0.90841 0.78394,1.35575 0.24831,0.50981 0.51605,1.00655 0.7328,1.53378 0.17658,0.33484 0.304,0.69578 0.43552,1.05356 0.0486,0.13216 0.087,0.25878 0.11928,0.38294 0.6006,0.95999 1.20363,1.91888 1.79321,2.88745 0.49685,0.86844 0.9921,1.7389 1.45614,2.62873 0.39148,0.70161 0.62318,1.48506 0.92217,2.23339 0.1822,0.39612 0.27747,0.82506 0.38817,1.24813 0.11871,0.12758 0.23477,0.27599 0.34463,0.44916 0.26981,0.42526 0.51311,0.87209 0.64381,1.37439 0.18535,0.53817 0.3937,1.07071 0.5302,1.62692 0.0913,0.43104 0.23819,0.84518 0.32758,1.27711 0.0752,0.31373 0.14124,0.63002 0.22343,0.94179 l 4.1166,8.03936 c 21.77641,42.52773 43.3456,77.72745 78.92531,128.79958 20.71408,29.73415 22.76688,31.8787 27.68378,28.9057 7.75388,-4.68814 78.23864,-120.64442 97.60147,-160.56583 l 2.90471,-5.98606 h 0.4715 c 0.0219,-0.048 0.0427,-0.0958 0.0663,-0.14282 0.18166,-0.48528 0.37241,-0.96794 0.59458,-1.43235 0.32676,-0.72929 0.67587,-1.44746 1.03387,-2.15887 0.16808,-0.33998 0.33178,-0.68225 0.49612,-1.02458 0.16877,-0.61231 0.33793,-1.22642 0.60404,-1.79665 0.37181,-0.8801 0.77302,-1.74426 1.20052,-2.59355 0.3361,-0.6854 0.63837,-1.39158 0.99222,-2.06572 0.10988,-0.20943 0.22811,-0.38854 0.3503,-0.54645 0.0239,-0.0835 0.0308,-0.17173 0.0569,-0.25459 0.2292,-0.71525 0.47753,-1.42211 0.76689,-2.11127 0.37041,-0.86992 0.75312,-1.73421 1.18726,-2.5687 0.38366,-0.68777 0.81776,-1.34032 1.20431,-2.0264 0.0364,-0.0596 0.0702,-0.12029 0.10603,-0.18008 0.52105,-1.48317 1.06576,-3.0657 2.36884,-5.86394 45.50261,-97.71271 55.81255,-195.43423 27.10808,-256.95127 -29.5439,-63.315661 -85.49978,-94.200573 -141.3653,-94.460481 z m -5.44018,15.61301 c 72.77095,-1.49669 145.10081,56.287811 148.11963,152.269811 2.71256,86.23211 -33.23003,179.93614 -124.0355,323.37126 -10.15302,16.03783 -18.77341,29.54796 -19.15712,30.02342 -2.08846,2.58754 -56.76071,-81.03472 -77.50512,-118.54752 C 577.11652,330.5855 559.95388,207.46139 601.59782,138.61921 630.71041,90.492956 674.54079,68.251751 718.20302,67.353679 Z m 3.12057,43.711461 c -37.06674,0.6482 -73.9407,22.23036 -92.34305,64.42256 -29.67002,68.02578 13.928,149.71954 83.52477,156.50682 81.27536,7.92576 138.53646,-81.45254 102.3486,-159.75652 -19.19524,-41.53472 -56.46359,-61.82104 -93.53032,-61.17286 z m -1.20242,15.98145 c 3.10191,-0.12084 6.22057,-0.064 9.34471,0.17594 16.66116,1.28003 33.46,7.79366 48.47502,20.61381 56.29725,48.06622 36.83562,145.84556 -32.96301,165.61216 -53.17984,15.06059 -105.84539,-25.875 -109.99289,-85.4938 -3.99888,-57.48304 38.60975,-99.0956 85.13617,-100.90811 z m -112.93926,294.5318 c 0.15775,0.32076 0.31385,0.64275 0.47339,0.96248 -0.0139,-0.0475 -0.0275,-0.0954 -0.0417,-0.14281 -0.15031,-0.26921 -0.28421,-0.54877 -0.43174,-0.81967 z m 257.84176,6.98787 c 0.0643,-0.0438 -0.14862,0.052 -0.20639,0.10556 -0.0561,0.0519 -0.10476,0.11177 -0.15907,0.16559 0.0114,-0.002 0.0227,-0.005 0.0342,-0.008 0.11067,-0.0869 0.21736,-0.18545 0.33137,-0.26288 z" /></g><path
       style="fill:#e1e1e6;fill-opacity:1;stroke-width:2"
       d="M 716.97943,597.55468 C 705.329,584.5966 666.78119,534.79456 650.75832,512 616.65344,463.48148 583.75161,402.25146 571.23084,364 c -3.78064,-11.55 -9.38085,-32.25 -12.44492,-46 -5.09399,-22.85928 -5.58023,-28.5964 -5.67847,-67 L 553,209 559.26947,191.47757 C 578.6508,137.30904 622.61956,98.07459 681.10491,82.760678 706.25914,76.174247 743.87509,75.331797 769,80.792171 803.2108,88.227175 831.50238,103.69852 857.15496,129 c 37.15236,36.64386 50.67628,73.43894 48.34946,131.54628 -1.84976,46.19426 -14.24628,90.52454 -40.54982,145.0073 -16.77924,34.75502 -27.33814,52.86936 -55.63596,95.44642 -42.8155,64.42042 -74.73276,107 -80.20621,107 -1.50797,0 -6.96782,-4.7004 -12.133,-10.44532 z M 756.23572,552.4836 C 803.97994,485.3511 825.92888,450.25204 849.08884,404 908.1139,286.12284 906.42876,194.16975 844.1671,135.43526 815.71864,108.59841 779.34388,93.276207 737.84778,90.650163 660.07926,85.728652 592.31572,131.56157 571.60632,203.09013 567.5285,217.17462 567.01428,223.13037 567.12446,255 c 0.10001,28.9258 0.95245,39.7336 4.33803,55 12.32957,55.59714 37.51592,113.22626 73.55194,168.29492 27.98697,42.76846 78.95303,109.7187 83.5008,109.68868 1.36662,-0.01 13.84084,-15.98404 27.72049,-35.5 z"
       id="path4162" /></g></svg>
