<svg width="121" height="120" viewBox="0 0 121 120" fill="none" xmlns="http://www.w3.org/2000/svg">
<path d="M2.72222 40H38.2778C39.5044 40 40.5 39.0044 40.5 37.7778V2.22222C40.5 0.995556 39.5044 0 38.2778 0H2.72222C1.49556 0 0.5 0.995556 0.5 2.22222V37.7778C0.5 39.0044 1.49556 40 2.72222 40ZM4.94444 4.44444H36.0556V35.5556H4.94444V4.44444Z" fill="#E1E1E6"/>
<path d="M29.3889 8.88892H11.6111C10.3845 8.88892 9.38892 9.88447 9.38892 11.1111V28.8889C9.38892 30.1156 10.3845 31.1111 11.6111 31.1111H29.3889C30.6156 31.1111 31.6111 30.1156 31.6111 28.8889V11.1111C31.6111 9.88447 30.6156 8.88892 29.3889 8.88892ZM27.1667 26.6667H13.8334V13.3334H27.1667V26.6667Z" fill="#E1E1E6"/>
<path d="M2.72222 120H38.2778C39.5044 120 40.5 119.004 40.5 117.778V82.2222C40.5 80.9956 39.5044 80 38.2778 80H2.72222C1.49556 80 0.5 80.9956 0.5 82.2222V117.778C0.5 119.004 1.49556 120 2.72222 120ZM4.94444 84.4444H36.0556V115.556H4.94444V84.4444Z" fill="#E1E1E6"/>
<path d="M29.3889 88.8889H11.6111C10.3845 88.8889 9.38892 89.8845 9.38892 91.1111V108.889C9.38892 110.116 10.3845 111.111 11.6111 111.111H29.3889C30.6156 111.111 31.6111 110.116 31.6111 108.889V91.1111C31.6111 89.8845 30.6156 88.8889 29.3889 88.8889ZM27.1667 106.667H13.8334V93.3334H27.1667V106.667Z" fill="#E1E1E6"/>
<path d="M82.7223 40H118.278C119.505 40 120.5 39.0044 120.5 37.7778V2.22222C120.5 0.995556 119.505 0 118.278 0H82.7223C81.4956 0 80.5001 0.995556 80.5001 2.22222V37.7778C80.5001 39.0044 81.4956 40 82.7223 40ZM84.9445 4.44444H116.056V35.5556H84.9445V4.44444Z" fill="#E1E1E6"/>
<path d="M109.389 8.88892H91.6111C90.3845 8.88892 89.3889 9.88447 89.3889 11.1111V28.8889C89.3889 30.1156 90.3845 31.1111 91.6111 31.1111H109.389C110.616 31.1111 111.611 30.1156 111.611 28.8889V11.1111C111.611 9.88447 110.616 8.88892 109.389 8.88892ZM107.167 26.6667H93.8334V13.3334H107.167V26.6667Z" fill="#E1E1E6"/>
<path d="M60.5 0H76.0556V4.44444H60.5V0Z" fill="#E1E1E6"/>
<path d="M53.8333 13.3333H67.1666V22.2222H71.6111V13.3333H76.0555V8.88889H56.0555V0H51.6111V11.1111C51.6111 12.3378 52.6066 13.3333 53.8333 13.3333Z" fill="#E1E1E6"/>
<path d="M44.9445 26.6666H49.3889V31.1111H44.9445V26.6666Z" fill="#E1E1E6"/>
<path d="M58.2778 37.7778V31.1112H76.0556V26.6667H58.2778V22.2223H62.7222V17.7778H44.9445V22.2223H53.8333V35.5556H44.9445V40.0001H56.0556C57.2822 40.0001 58.2778 39.0045 58.2778 37.7778Z" fill="#E1E1E6"/>
<path d="M62.7222 35.5555H76.0556V40H62.7222V35.5555Z" fill="#E1E1E6"/>
<path d="M107.167 80H120.5V84.4444H107.167V80Z" fill="#E1E1E6"/>
<path d="M102.722 80H98.2777V91.1111C98.2777 92.3378 99.2733 93.3333 100.5 93.3333H111.611V102.222H116.055V93.3333H120.5V88.8889H102.722V80Z" fill="#E1E1E6"/>
<path d="M89.3889 106.667H93.8334V111.111H89.3889V106.667Z" fill="#E1E1E6"/>
<path d="M102.722 102.222H107.167V97.7778H89.3889V102.222H98.2778V115.556H89.3889V120H100.5C101.727 120 102.722 119.004 102.722 117.778V111.111H120.5V106.667H102.722V102.222Z" fill="#E1E1E6"/>
<path d="M107.167 115.556H120.5V120H107.167V115.556Z" fill="#E1E1E6"/>
<path d="M18.2778 97.7778H22.7222V102.222H18.2778V97.7778Z" fill="#E1E1E6"/>
<path d="M18.2778 17.7778H22.7222V22.2223H18.2778V17.7778Z" fill="#E1E1E6"/>
<path d="M98.2777 17.7778H102.722V22.2223H98.2777V17.7778Z" fill="#E1E1E6"/>
<path d="M76.0556 102.222V97.7778H62.7222V82.2222C62.7222 80.9956 61.7267 80 60.5 80H44.9445V84.4444H49.3889V91.1111C49.3889 92.3378 50.3845 93.3333 51.6111 93.3333H58.2778V97.7778H44.9445V102.222H58.2778V106.667H51.6111C50.3845 106.667 49.3889 107.662 49.3889 108.889V115.556H44.9445V120H60.5C61.7267 120 62.7222 119.004 62.7222 117.778V102.222H76.0556ZM53.8333 88.8889V84.4444H58.2778V88.8889H53.8333ZM53.8333 115.556V111.111H58.2778V115.556H53.8333Z" fill="#E1E1E6"/>
<path d="M67.1667 108.889V120H71.6112V111.111H76.0556V120H80.5001V111.111H84.9445V106.667H69.389C68.1623 106.667 67.1667 107.662 67.1667 108.889Z" fill="#E1E1E6"/>
<path d="M82.7223 84.4444H71.6112V80H67.1667V93.3333H71.6112V88.8889H80.5001V102.222H84.9445V86.6667C84.9445 85.44 83.949 84.4444 82.7223 84.4444Z" fill="#E1E1E6"/>
<path d="M89.3889 80H93.8334V93.3333H89.3889V80Z" fill="#E1E1E6"/>
<path d="M107.167 44.4445H120.5V48.8889H107.167V44.4445Z" fill="#E1E1E6"/>
<path d="M102.722 44.4445H98.2778V55.5556C98.2778 56.7822 99.2733 57.7778 100.5 57.7778H102.722V62.2222H84.9445V66.6667H89.3889V71.1111H84.9445V75.5556H91.6111C92.8378 75.5556 93.8333 74.56 93.8333 73.3333V66.6667H98.2778V73.3333C98.2778 74.56 99.2733 75.5556 100.5 75.5556H120.5V71.1111H102.722V66.6667H104.944C106.171 66.6667 107.167 65.6711 107.167 64.4445V57.7778H111.611V66.6667H116.056V57.7778H120.5V53.3333H102.722V44.4445Z" fill="#E1E1E6"/>
<path d="M89.3889 44.4445H93.8334V57.7778H89.3889V44.4445Z" fill="#E1E1E6"/>
<path d="M62.7222 44.4445H76.0556V48.8889H62.7222V44.4445Z" fill="#E1E1E6"/>
<path d="M53.8333 44.4445V55.5556C53.8333 56.7822 54.8288 57.7778 56.0555 57.7778H58.2777V75.5556H62.7221V57.7778H67.1666V66.6667H71.611V57.7778H76.0555V53.3333H58.2777V44.4445H53.8333Z" fill="#E1E1E6"/>
<path d="M18.2778 73.3333V46.6667C18.2778 45.44 17.2822 44.4445 16.0556 44.4445H0.5V48.8889H4.94444V55.5556C4.94444 56.7822 5.94 57.7778 7.16667 57.7778H13.8333V71.1111H0.5V75.5556H16.0556C17.2822 75.5556 18.2778 74.56 18.2778 73.3333ZM9.38889 53.3333V48.8889H13.8333V53.3333H9.38889Z" fill="#E1E1E6"/>
<path d="M22.7223 44.4445V57.7778H27.1667V53.3333H36.0556V66.6667H40.5001V51.1111C40.5001 49.8845 39.5045 48.8889 38.2778 48.8889H27.1667V44.4445H22.7223Z" fill="#E1E1E6"/>
<path d="M44.9445 44.4445H49.3889V57.7778H44.9445V44.4445Z" fill="#E1E1E6"/>
<path d="M27.1667 62.2223H22.7223V73.3334C22.7223 74.5601 23.7178 75.5556 24.9445 75.5556H47.1667C48.3934 75.5556 49.389 74.5601 49.389 73.3334V62.2223H44.9445V71.1112H27.1667V62.2223Z" fill="#E1E1E6"/>
<path d="M29.3889 55.5555H33.8334V68.8889H29.3889V55.5555Z" fill="#E1E1E6"/>
<path d="M51.6111 60H56.0555V75.5556H51.6111V60Z" fill="#E1E1E6"/>
<path d="M76.0556 71.1112H67.1667V75.5556H78.2779C79.5045 75.5556 80.5001 74.5601 80.5001 73.3334V62.2223H76.0556V71.1112Z" fill="#E1E1E6"/>
<path d="M80.5001 53.3334H84.9445V57.7778H80.5001V53.3334Z" fill="#E1E1E6"/>
<path d="M80.5001 44.4445H84.9445V48.8889H80.5001V44.4445Z" fill="#E1E1E6"/>
</svg>
