<svg width="40" height="205" viewBox="0 0 40 205" fill="none" xmlns="http://www.w3.org/2000/svg">
<g opacity="0.1">
<path d="M11.754 124.2C11.754 125.977 13.1711 127.442 14.9578 127.442H21.7353H28.5127V124.2H21.7353H14.9578V120.334V116.468H11.754V120.334V124.2Z" fill="white"/>
<path d="M20.1089 97.1421H14.9334C13.1775 97.1421 11.7296 98.5762 11.7296 100.384V105.622V110.86C11.7296 112.637 13.1466 114.102 14.9334 114.102H20.1089H25.2844C27.0403 114.102 28.4883 112.668 28.4883 110.86V105.622V100.384C28.4883 98.6074 27.0712 97.1421 25.2844 97.1421H20.1089ZM20.1089 100.384H25.2844V105.622V110.86H20.1089H14.9334V105.622V100.384H20.1089Z" fill="white"/>
<path d="M11.754 90.6529C11.754 92.43 13.1711 93.8953 14.9578 93.8953H20.1333H25.3088C27.0648 93.8953 28.5127 92.4612 28.5127 90.6529L28.3586 79.2424H25.3088V90.6529H20.1333H14.9578V79.2424H11.908L11.754 90.6529Z" fill="white"/>
<path d="M11.754 60.6653L11.754 65.0611L18.5006 71.4835V72.7617H11.754V76.004H20.1025H28.4819V72.7617H21.7044V71.1405V70.8911L28.4819 64.2194V59.7612L19.7328 68.3347L11.754 60.6653Z" fill="white"/>
<path d="M25.2844 55.8371H21.7108L21.5568 42.1196H18.507H14.9334C13.1775 42.1196 11.7296 43.5537 11.7296 45.3619V50.5995V55.8371C11.7296 57.6142 13.1466 59.0795 14.9334 59.0795H20.1089H25.2844C27.0403 59.0795 28.4883 57.6454 28.4883 55.8371L28.3342 42.1196H25.2844V55.8371ZM14.9334 55.8371V50.5995V45.3619H18.507V48.9783V55.8371H14.9334Z" fill="white"/>
<path d="M6.85162 33.9786V35.2256L9.28534 37.2209H11.719V39.6838H14.9229L14.8921 37.2209H25.2739C27.0298 37.2209 28.4778 35.7868 28.4778 33.9786L28.3237 28.7409H25.2739V33.9786H14.8613L14.7689 28.2733H11.719V33.9786H6.85162Z" fill="white"/>
<path d="M21.7108 11.1819C19.9549 11.1819 18.507 12.616 18.507 14.4242V18.5083V22.5924H14.9334V11.1819H11.8836L11.7296 22.5924C11.7296 24.3694 13.1466 25.8347 14.9334 25.8347H18.507C20.2629 25.8347 21.7108 24.4006 21.7108 22.5924V18.5083V14.4242H25.2844V25.8347H28.3342L28.4883 14.4242C28.4883 12.6471 27.0712 11.1819 25.2844 11.1819H21.7108Z" fill="white"/>
<path d="M11.754 -5.74553V-0.507914V4.7297C11.754 6.50675 13.1711 7.97205 14.9578 7.97205L20.1333 7.97205H25.3088C27.0648 7.97205 28.5127 6.53793 28.5127 4.7297L28.3586 -8.98787H25.3088V4.7297L21.7353 4.7297L21.5812 -8.98787H18.5314H14.9578C13.1711 -8.98787 11.754 -7.55376 11.754 -5.74553ZM18.5006 -5.74553V4.7297H14.927V-0.507914V-5.74553H18.5006Z" fill="white"/>
<path d="M0.778356 136.012L0.00819443 141.281C-0.022612 141.437 0.0389971 141.593 0.10061 141.655L2.99641 143.9C3.18125 144.056 3.42771 144.087 3.64335 144.025C3.859 143.962 4.04384 144.149 4.01303 144.367L3.61254 146.207C3.55093 146.487 3.64336 146.799 3.88981 146.986L13.1317 154.282C13.3166 154.406 13.3782 154.656 13.2858 154.874L12.0535 157.649C11.9303 157.898 11.9611 158.179 12.1151 158.397L13.0701 159.8C13.2242 160.018 13.255 160.33 13.1317 160.579L12.7929 161.265C12.5772 161.702 12.8237 162.232 13.2858 162.356L15.473 162.855C15.9967 162.98 16.5204 162.762 16.7977 162.294L17.4446 161.234L19.5087 157.836L20.5253 156.183C20.8025 155.716 20.7409 155.123 20.4021 154.718L17.9992 151.943C17.8143 151.725 17.7527 151.382 17.9067 151.133L18.338 150.291C18.4921 150.01 18.4305 149.667 18.2148 149.449L16.9209 148.046C16.7053 147.828 16.6745 147.485 16.7977 147.236L17.7527 145.147C17.9067 144.835 17.8143 144.461 17.5371 144.243L16.3048 143.276L7.03206 135.95C6.60077 135.607 5.95384 135.825 5.83061 136.386L5.46093 138.008C5.39932 138.35 4.96803 138.506 4.72158 138.257L1.61012 135.732C1.24045 135.482 0.839968 135.638 0.778356 136.012Z" fill="white"/>
<path d="M19.4459 160.175C19.3535 160.331 19.5075 160.487 19.6615 160.425L21.6947 159.645C21.8488 159.583 22.0028 159.583 22.1568 159.614L24.8062 160.3C24.991 160.331 25.1759 160.269 25.2683 160.144L26.7778 158.18C26.901 157.993 26.901 157.743 26.747 157.587L24.9602 155.53C24.8678 155.405 24.8062 155.249 24.7754 155.125L24.5289 152.786C24.4981 152.63 24.2825 152.568 24.1901 152.724L19.4459 160.175Z" fill="white"/>
<path d="M26.2831 160.859C26.1907 160.984 26.1599 161.171 26.2215 161.327L27.0225 162.979C27.0533 163.072 27.1457 163.135 27.2381 163.197L35.8331 166.72C35.8639 166.72 35.8639 166.72 35.8947 166.72C35.9255 166.689 35.9563 166.658 35.9563 166.595L35.6483 165.785C35.6483 165.754 35.6483 165.722 35.6483 165.691C35.6791 165.66 35.7407 165.629 35.7715 165.66L39.8688 168.185C39.9612 168.248 40.0536 168.123 39.9612 168.061L30.9041 158.926C30.8117 158.833 30.7193 158.801 30.596 158.77L28.2547 158.583C28.1007 158.583 27.9775 158.645 27.885 158.739L26.2831 160.859Z" fill="white"/>
<path d="M11.754 201.261L11.908 214.979H14.9578V201.261H18.5314L18.6854 214.979H21.7353H25.3088C27.0648 214.979 28.5127 213.545 28.5127 211.736V206.499V201.261C28.5127 199.484 27.0956 198.019 25.3088 198.019H20.1333H14.9578C13.1711 198.05 11.754 199.484 11.754 201.261ZM25.278 201.261V206.499V211.736H21.7044V201.261H25.278Z" fill="white"/>
<path d="M14.8677 189.908L14.7753 184.203H11.7254V189.908H6.82721V191.155L9.26092 193.15H11.6946V195.613H14.8985L14.8677 193.15H25.2495C27.0054 193.15 28.4533 191.716 28.4533 189.908L28.2993 184.67H25.2495V189.908H14.8677Z" fill="white"/>
</g>
</svg>
