<svg width="144" height="120" viewBox="0 0 144 120" fill="none" xmlns="http://www.w3.org/2000/svg">
<path d="M53.5931 41.182C53.5931 41.182 50.3258 27.2278 37.5968 27.2278C24.8678 27.2278 23.047 34.5452 24.8678 35.5662C26.6887 36.5873 34.4996 48.8398 32.866 54.1151C31.2323 59.3905 53.2358 46.7977 53.5931 41.182Z" fill="url(#paint0_linear_89_2228)"/>
<path d="M36.0655 29.0997C48.7944 29.0997 52.0618 43.0539 52.0618 43.0539C52.0277 43.6495 51.7384 44.3472 51.2449 45.0789C52.6233 43.6325 53.5253 42.2881 53.5933 41.182C53.5933 41.182 50.326 27.2278 37.597 27.2278C29.8031 27.2278 26.1103 29.9675 24.817 32.333C26.791 30.5972 30.3136 29.0997 36.0655 29.0997Z" fill="url(#paint1_linear_89_2228)"/>
<path d="M116.982 61.9602C121.356 60.6839 126.801 66.1464 129.167 74.1786C131.515 82.2108 129.882 89.7495 125.508 91.0258" stroke="#04D361" stroke-width="1.04425" stroke-miterlimit="10"/>
<path d="M135.77 72.2386C137.046 76.6121 131.584 82.0577 123.552 84.4231C115.519 86.7715 107.981 85.1378 106.704 80.7643" stroke="#04D361" stroke-width="1.04425" stroke-miterlimit="10"/>
<path opacity="0.22" d="M33.0021 55.1362C33.0021 55.1362 5.60421 70.1114 0.499011 93.0848C-4.60619 116.058 29.939 136.139 82.1823 100.913C82.1823 100.913 46.3607 123.291 27.8118 115.122C9.26294 106.954 26.7908 91.4682 48.4028 82.9595C70.0149 74.4509 33.0021 55.1362 33.0021 55.1362Z" fill="white"/>
<path d="M71.6313 23.9264C71.6313 23.9264 71.4271 20.591 66.0156 20.7611C60.5871 20.9313 48.5388 26.7343 50.0533 31.1588C51.5509 35.5663 71.6313 23.9264 71.6313 23.9264Z" fill="#8157E4"/>
<path d="M85.8408 26.462L122.258 14.72C122.258 14.72 124.47 10.9762 130.256 15.5709C130.256 15.5709 141.998 10.2955 143.359 11.9972C144.721 13.699 139.956 17.613 137.914 18.8042C137.914 18.8042 140.977 24.9304 135.872 25.6111C135.872 25.6111 135.702 28.5041 132.468 28.8444C129.235 29.1847 125.151 27.1427 125.151 27.1427L82.7776 41.6074L85.8408 26.462Z" fill="#D7D7E1"/>
<path d="M65.0796 24.8113C65.0796 24.8113 65.7603 21.6971 79.7145 23.569C93.6688 25.4409 97.2424 31.7373 97.2424 31.7373L65.42 40.5864C65.42 40.5864 60.1446 35.4812 60.4849 35.311C60.8253 35.1408 65.0796 24.8113 65.0796 24.8113Z" fill="white"/>
<path d="M73.6734 23.9944L75.0688 10.9591C75.3581 8.21935 77.213 5.92204 79.8337 5.03714C85.041 3.30137 90.7418 5.54763 93.3625 10.3635C95.0131 13.3926 95.2003 17.0003 93.873 20.1655L90.912 27.2107C90.912 27.2107 80.8207 31.1417 73.6734 23.9944Z" fill="url(#paint2_radial_89_2228)"/>
<path d="M92.0696 24.4539L85.8412 26.462L85.4838 28.2658C88.632 28.0957 90.9124 27.2107 90.9124 27.2107L92.0696 24.4539Z" fill="#121214"/>
<path d="M90.9119 27.2107L91.0821 26.8023C88.4274 25.475 84.7517 24.2327 79.7145 23.552C77.3832 23.2457 75.4262 23.0585 73.7755 22.9904L73.6734 23.9774C80.8207 31.1417 90.9119 27.2107 90.9119 27.2107Z" fill="#D7D7E1"/>
<path d="M89.0741 14.0223C89.6867 16.4047 90.2993 16.7961 89.993 17.7151C89.5846 18.9403 87.1171 18.9403 87.1171 18.9403L86.8448 20.0294C86.8448 20.0294 82.3352 19.8933 81.5184 16.6089C81.5184 16.6089 80.9738 20.8462 85.4834 22.2076C85.4834 22.2076 84.8027 25.0835 83.1691 26.5811C81.5354 28.0786 76.8896 26.2577 76.4812 23.1436C76.4812 23.1436 78.1149 20.3017 78.5233 13.2055C78.9317 6.10925 87.8148 5.54766 88.4955 10.8911C88.6487 12.2184 88.8529 13.2225 89.0741 14.0223Z" fill="#8157E4"/>
<path d="M84.1338 14.4757C84.233 13.4655 83.904 12.6064 83.399 12.5568C82.8939 12.5072 82.404 13.2858 82.3047 14.296C82.2055 15.3061 82.5345 16.1653 83.0395 16.2149C83.5446 16.2645 84.0345 15.4858 84.1338 14.4757Z" fill="#121214"/>
<path d="M86.4748 14.8262C86.5741 13.8161 86.2451 12.9569 85.74 12.9073C85.2349 12.8577 84.745 13.6364 84.6458 14.6465C84.5465 15.6567 84.8755 16.5158 85.3806 16.5654C85.8857 16.615 86.3756 15.8364 86.4748 14.8262Z" fill="#121214"/>
<path d="M83.1863 11.3846C84.0201 11.2825 85.5687 11.2655 86.811 12.1504C86.9471 12.2525 87.1002 12.0823 87.0152 11.9462C86.4196 11.0272 85.1433 9.75097 83.0842 11.1123C82.9651 11.1974 83.0331 11.4016 83.1863 11.3846Z" fill="#121214"/>
<path d="M78.5063 13.2055C78.0979 20.3017 76.0558 23.3138 76.0558 23.3138C76.2089 24.505 77.4512 25.509 78.4382 26.2067C78.8636 24.8964 79.7996 21.1355 80.0549 14.72C80.2761 9.25744 82.9138 7.74292 84.7006 7.3345C81.9778 7.07924 78.7615 8.98518 78.5063 13.2055Z" fill="#D7D7E1"/>
<path d="M76.4812 17.6129C77.6724 6.38149 79.8336 5.03714 79.8336 5.03714C77.23 5.90502 75.3581 8.21935 75.0688 10.9591L73.6734 23.9944C74.32 24.6411 75.0007 25.2027 75.6814 25.6791C75.8686 23.6711 76.1239 21.0334 76.4812 17.6129Z" fill="white"/>
<path d="M49.6787 85.427L45.084 88.1838C44.2331 88.6944 43.161 88.5582 42.4463 87.8775C40.2681 85.7844 35.7074 80.6792 31.9636 71.8132C28.6793 64.0362 27.9305 59.1523 27.8114 56.6677C27.7603 55.5276 28.6112 54.5576 29.7344 54.4215L32.3039 54.1322L49.6787 85.427Z" fill="url(#paint3_linear_89_2228)"/>
<path d="M30.3304 53.6046C31.6237 65.755 36.3545 78.0244 45.4758 86.1757L47.3647 87.8605C48.2667 88.6603 49.543 88.8815 50.6661 88.405L85.6027 73.5319C92.2225 70.707 98.2466 66.5888 103.148 61.3304C109.648 54.3703 115.162 44.4663 108.576 34.2219C99.642 20.3357 65.6925 32.0096 65.6925 32.0096L31.913 50.5755C30.8069 51.1711 30.1943 52.3623 30.3304 53.6046Z" fill="#D7D7E1"/>
<path d="M32.4576 64.5298C34.2104 70.5539 36.9331 76.2717 40.745 81.1217C42.685 79.1647 45.2546 75.9144 47.0414 71.2176C47.0414 71.2176 52.0616 81.6832 68.0749 80.9855L80.4295 75.7272C80.3614 75.591 80.2933 75.4549 80.2253 75.3188C80.0551 74.9784 54.5291 64.2575 54.5291 64.2575L52.1466 55.4085L48.7261 41.3181L32.6618 50.048C31.8279 54.2513 36.2695 57.8249 32.4576 64.5298Z" fill="#A5A5B5"/>
<path d="M108.559 34.2049C103.334 26.0706 89.5333 26.7002 78.9826 28.6232C75.8854 34.8856 75.5451 43.4964 78.7103 51.937C81.7904 60.1734 87.4913 66.3677 93.7707 69.1585C97.1911 66.9293 100.339 64.3086 103.147 61.3136C109.631 54.3535 115.144 44.4493 108.559 34.2049Z" fill="url(#paint4_linear_89_2228)"/>
<path d="M108.559 34.2049C103.335 26.0706 89.5339 26.7002 78.9832 28.6232C78.6428 29.3039 78.3535 30.0016 78.0813 30.7334C87.9173 29.406 99.1828 29.7634 103.794 36.9277C110.38 47.1721 104.867 57.0762 98.366 64.0363C96.7323 65.7721 94.9965 67.3887 93.1416 68.8692C93.3458 68.9713 93.55 69.0734 93.7543 69.1585C97.1747 66.9293 100.323 64.3086 103.131 61.3136C109.631 54.3535 115.145 44.4493 108.559 34.2049Z" fill="url(#paint5_linear_89_2228)"/>
<path d="M45.799 68.3587L46.9561 65.6869L58.6981 31.3119L55.9413 30.8694C55.9413 30.8694 51.4487 31.0907 51.2445 31.1928C51.0403 31.2949 42.7018 40.8246 41.8509 50.5245C41.0001 60.2244 41.1702 62.777 41.3404 62.9471C41.5106 63.1173 43.3825 67.5418 43.3825 67.5418L45.799 68.3587Z" fill="#121214"/>
<path d="M137.914 18.8042C139.956 17.613 144.721 13.699 143.359 11.9972C141.998 10.2955 130.256 15.5709 130.256 15.5709C124.47 10.9762 122.258 14.72 122.258 14.72L114.294 17.2896C114.26 20.8122 114.532 25.9855 116.013 30.2569L125.151 27.1427C125.151 27.1427 129.235 29.1848 132.468 28.8444C135.702 28.5041 135.872 25.6111 135.872 25.6111C140.977 24.9304 137.914 18.8042 137.914 18.8042Z" fill="#8157E4"/>
<path d="M71.5636 29.3889C67.6667 31.7543 54.6314 40.5353 54.7845 52.4134C54.7845 52.4134 55.2951 50.2011 56.3161 49.1801C56.3161 49.1801 56.9117 61.6878 69.6747 61.0071C69.6747 61.0071 71.2063 54.8809 73.5887 54.5406C75.9711 54.2002 74.2694 60.837 74.2694 60.837C74.2694 60.837 81.757 56.5826 83.4587 58.6247C85.1605 60.6668 78.6939 65.6018 78.6939 65.6018C78.6939 65.6018 86.0113 64.0703 86.692 66.4527C87.3727 68.8351 79.8851 70.707 79.8851 70.707C79.8851 70.707 85.671 71.0474 85.8412 72.7491C86.0113 74.4508 70.5256 79.556 58.7836 76.4929C47.0416 73.4298 39.7242 59.1352 45.5101 44.5003C51.0748 30.427 72.8229 16.0473 72.7719 27.2618C72.7719 28.1296 72.3124 28.9465 71.5636 29.3889Z" fill="white"/>
<path d="M44.8294 37.5232C40.2347 46.3723 39.2137 63.7299 30.0243 66.1124C29.8882 66.1464 29.7521 66.1805 29.6159 66.2145C29.4968 66.8441 29.1905 67.4397 28.765 67.9332C29.1905 69.2776 29.5478 70.639 29.7861 72.0344C30.2285 74.519 30.4668 77.0375 30.3647 79.5731C30.4157 79.6242 30.4668 79.6752 30.4838 79.7262C30.5859 79.7943 30.688 79.8624 30.7731 79.9475C31.2836 80.3048 31.8111 80.6282 32.3727 80.9175C32.679 81.0706 32.9513 81.2748 33.1896 81.5301C33.2746 81.5131 33.3427 81.479 33.4278 81.462C39.3328 79.6241 43.8254 74.7402 45.7994 68.3927C41.7322 61.9431 40.7623 52.8899 44.8294 43.9898C48.5902 35.7705 58.0859 27.7553 64.9779 25.0325C65.046 24.9134 65.08 24.8453 65.08 24.8453C65.08 24.8453 49.4241 28.6742 44.8294 37.5232Z" fill="white"/>
<path d="M33.274 81.479C33.1549 81.2408 33.0358 81.0025 32.9166 80.7473C29.6833 74.2977 29.309 69.4818 29.8195 66.1634C20.8003 68.4778 18.6051 67.3376 17.2607 71.3877C15.8993 75.4719 15.7291 88.2349 19.6431 88.2349C23.5571 88.2349 23.8974 84.1507 23.8974 84.1507L21.1747 83.1297C21.1747 83.1297 25.7013 83.7934 33.274 81.479Z" fill="url(#paint6_radial_89_2228)"/>
<path d="M85.8412 72.7491C85.6711 71.0474 79.8851 70.707 79.8851 70.707C79.8851 70.707 87.3728 68.8351 86.6921 66.4527C86.0114 64.0703 78.6939 65.6018 78.6939 65.6018C78.6939 65.6018 85.1605 60.6668 83.4588 58.6247C81.7571 56.5826 74.2694 60.837 74.2694 60.837C74.2694 60.837 75.9711 54.2002 73.5887 54.5406C71.2063 54.8809 69.6747 61.0071 69.6747 61.0071C66.1691 61.1943 63.5825 60.3945 61.6766 59.1182C58.8687 62.1643 55.6864 67.8651 58.7836 76.4929C70.5256 79.556 86.0114 74.4508 85.8412 72.7491Z" fill="url(#paint7_linear_89_2228)"/>
<path d="M95.2854 103.465C101.77 103.465 107.027 98.2084 107.027 91.7235C107.027 85.2386 101.77 79.9815 95.2854 79.9815C88.8005 79.9815 83.5434 85.2386 83.5434 91.7235C83.5434 98.2084 88.8005 103.465 95.2854 103.465Z" fill="url(#paint8_radial_89_2228)"/>
<path d="M29.9388 20.0805C32.0064 20.0805 33.6826 18.4043 33.6826 16.3367C33.6826 14.269 32.0064 12.5928 29.9388 12.5928C27.8711 12.5928 26.195 14.269 26.195 16.3367C26.195 18.4043 27.8711 20.0805 29.9388 20.0805Z" fill="#04D361" stroke="url(#paint9_radial_89_2228)" stroke-width="1.04425" stroke-miterlimit="10"/>
<path d="M100.646 78.1096C103.136 78.1096 105.155 76.0906 105.155 73.6C105.155 71.1094 103.136 69.0904 100.646 69.0904C98.1553 69.0904 96.1363 71.1094 96.1363 73.6C96.1363 76.0906 98.1553 78.1096 100.646 78.1096Z" fill="#04D361" stroke="#464650" stroke-width="1.04425" stroke-miterlimit="10"/>
<path d="M121.237 87.9797C127.581 87.9797 132.724 82.8369 132.724 76.4929C132.724 70.149 127.581 65.0062 121.237 65.0062C114.893 65.0062 109.75 70.149 109.75 76.4929C109.75 82.8369 114.893 87.9797 121.237 87.9797Z" fill="url(#paint10_linear_89_2228)"/>
<path d="M125.491 91.0257C121.118 92.302 115.672 86.8395 113.307 78.8073C110.958 70.7751 112.592 63.2365 116.965 61.9602" stroke="#04D361" stroke-width="1.04425" stroke-miterlimit="10"/>
<path d="M106.704 80.7473C105.428 76.3738 110.89 70.9282 118.923 68.5628C126.955 66.2144 134.494 67.8481 135.77 72.2216" stroke="#04D361" stroke-width="1.04425" stroke-miterlimit="10"/>
<path d="M11.0838 43.9898C10.9306 43.0879 12.9387 41.7265 15.6615 40.9097C17.7035 40.297 19.5754 40.1609 20.5454 40.4842" stroke="#04D361" stroke-width="1.04425" stroke-miterlimit="10"/>
<path d="M16.1548 46.117C18.1284 46.117 19.7284 44.517 19.7284 42.5434C19.7284 40.5697 18.1284 38.9697 16.1548 38.9697C14.1811 38.9697 12.5811 40.5697 12.5811 42.5434C12.5811 44.517 14.1811 46.117 16.1548 46.117Z" fill="url(#paint11_linear_89_2228)"/>
<path d="M20.545 40.4842C20.9024 40.6034 21.1236 40.7906 21.2087 41.0288C21.481 41.9308 19.4389 43.3432 16.648 44.177C13.8572 45.0109 11.3727 44.9769 11.1004 44.0749C11.1004 44.0579 11.0834 44.0239 11.0834 44.0069" stroke="#04D361" stroke-width="1.04425" stroke-miterlimit="10"/>
<path d="M47.0412 21.612C53.0092 21.612 57.8472 16.774 57.8472 10.806C57.8472 4.83802 53.0092 0 47.0412 0C41.0732 0 36.2352 4.83802 36.2352 10.806C36.2352 16.774 41.0732 21.612 47.0412 21.612Z" fill="#6C6C7F"/>
<path d="M130.256 15.5709C130.256 15.5709 133.404 18.0384 133.745 18.8892C134.085 19.7401 137.914 18.8042 137.914 18.8042C137.914 18.8042 136.127 19.9103 134.085 19.9103C134.085 19.9103 133.574 21.7822 131.362 21.612C129.15 21.4418 132.383 25.8664 135.872 25.6111C135.872 25.6111 133.745 26.7172 130.681 24.6751C130.681 24.6751 128.469 25.0155 128.98 26.8874C129.49 28.7593 131.124 28.9295 131.124 28.9295C131.124 28.9295 127.618 28.9295 126.938 26.8874C126.257 24.8453 129.32 23.8243 129.32 23.8243C129.32 23.8243 128.129 22.4629 128.81 21.1015L126.938 19.9103C126.938 19.9103 127.278 22.4629 123.875 23.8243C123.875 23.8243 126.938 20.9313 125.576 18.0384C125.576 18.0384 130.511 20.7612 132.043 19.7401C133.574 18.7191 130.256 15.5709 130.256 15.5709Z" fill="#121214"/>
<defs>
<linearGradient id="paint0_linear_89_2228" x1="24.2749" y1="41.3018" x2="53.5931" y2="41.3018" gradientUnits="userSpaceOnUse">
<stop stop-color="#8157E4"/>
<stop offset="0.1004" stop-color="#7D55DD"/>
<stop offset="0.249" stop-color="#724EC9"/>
<stop offset="0.4275" stop-color="#6143A8"/>
<stop offset="0.6294" stop-color="#49347A"/>
<stop offset="0.8478" stop-color="#2A2141"/>
<stop offset="1" stop-color="#121214"/>
</linearGradient>
<linearGradient id="paint1_linear_89_2228" x1="35.0746" y1="30.2944" x2="52.4502" y2="50.0667" gradientUnits="userSpaceOnUse">
<stop stop-color="#8157E4"/>
<stop offset="0.1004" stop-color="#7D55DD"/>
<stop offset="0.249" stop-color="#724EC9"/>
<stop offset="0.4275" stop-color="#6143A8"/>
<stop offset="0.6294" stop-color="#49347A"/>
<stop offset="0.8478" stop-color="#2A2141"/>
<stop offset="1" stop-color="#121214"/>
</linearGradient>
<radialGradient id="paint2_radial_89_2228" cx="0" cy="0" r="1" gradientUnits="userSpaceOnUse" gradientTransform="translate(93.2752 4.83375) scale(33.1396 33.1395)">
<stop offset="0.2882" stop-color="#27272E"/>
<stop offset="1" stop-color="#121214"/>
</radialGradient>
<linearGradient id="paint3_linear_89_2228" x1="27.8288" y1="71.3" x2="49.6787" y2="71.3" gradientUnits="userSpaceOnUse">
<stop stop-color="#8157E4"/>
<stop offset="0.1004" stop-color="#7D55DD"/>
<stop offset="0.249" stop-color="#724EC9"/>
<stop offset="0.4275" stop-color="#6143A8"/>
<stop offset="0.6294" stop-color="#49347A"/>
<stop offset="0.8478" stop-color="#2A2141"/>
<stop offset="1" stop-color="#121214"/>
</linearGradient>
<linearGradient id="paint4_linear_89_2228" x1="114.277" y1="18.2932" x2="63.5019" y2="76.6791" gradientUnits="userSpaceOnUse">
<stop stop-color="#8157E4"/>
<stop offset="0.1004" stop-color="#7D55DD"/>
<stop offset="0.249" stop-color="#724EC9"/>
<stop offset="0.4275" stop-color="#6143A8"/>
<stop offset="0.6294" stop-color="#49347A"/>
<stop offset="0.8478" stop-color="#2A2141"/>
<stop offset="1" stop-color="#121214"/>
</linearGradient>
<linearGradient id="paint5_linear_89_2228" x1="131.913" y1="19.9387" x2="57.5946" y2="67.193" gradientUnits="userSpaceOnUse">
<stop stop-color="#8157E4"/>
<stop offset="0.1004" stop-color="#7D55DD"/>
<stop offset="0.249" stop-color="#724EC9"/>
<stop offset="0.4275" stop-color="#6143A8"/>
<stop offset="0.6294" stop-color="#49347A"/>
<stop offset="0.8478" stop-color="#2A2141"/>
<stop offset="1" stop-color="#121214"/>
</linearGradient>
<radialGradient id="paint6_radial_89_2228" cx="0" cy="0" r="1" gradientUnits="userSpaceOnUse" gradientTransform="translate(34.3922 61.1844) scale(40.3821 40.3821)">
<stop offset="0.2882" stop-color="#27272E"/>
<stop offset="1" stop-color="#121214"/>
</radialGradient>
<linearGradient id="paint7_linear_89_2228" x1="89.9229" y1="52.3548" x2="45.5962" y2="89.9562" gradientUnits="userSpaceOnUse">
<stop stop-color="#8157E4"/>
<stop offset="0.1004" stop-color="#7D55DD"/>
<stop offset="0.249" stop-color="#724EC9"/>
<stop offset="0.4275" stop-color="#6143A8"/>
<stop offset="0.6294" stop-color="#49347A"/>
<stop offset="0.8478" stop-color="#2A2141"/>
<stop offset="1" stop-color="#121214"/>
</linearGradient>
<radialGradient id="paint8_radial_89_2228" cx="0" cy="0" r="1" gradientUnits="userSpaceOnUse" gradientTransform="translate(107.643 72.7949) scale(51.6089 51.6089)">
<stop offset="0.2882" stop-color="#27272E"/>
<stop offset="1" stop-color="#121214"/>
</radialGradient>
<radialGradient id="paint9_radial_89_2228" cx="0" cy="0" r="1" gradientUnits="userSpaceOnUse" gradientTransform="translate(29.9388 16.3351) scale(3.8289 3.8289)">
<stop offset="0.2882" stop-color="#27272E"/>
<stop offset="1" stop-color="#121214"/>
</radialGradient>
<linearGradient id="paint10_linear_89_2228" x1="117.048" y1="58.9977" x2="126.261" y2="97.4733" gradientUnits="userSpaceOnUse">
<stop stop-color="#8157E4"/>
<stop offset="0.1004" stop-color="#7D55DD"/>
<stop offset="0.249" stop-color="#724EC9"/>
<stop offset="0.4275" stop-color="#6143A8"/>
<stop offset="0.6294" stop-color="#49347A"/>
<stop offset="0.8478" stop-color="#2A2141"/>
<stop offset="1" stop-color="#121214"/>
</linearGradient>
<linearGradient id="paint11_linear_89_2228" x1="26.9185" y1="61.3584" x2="13.2495" y2="37.463" gradientUnits="userSpaceOnUse">
<stop stop-color="#8157E4"/>
<stop offset="0.1004" stop-color="#7D55DD"/>
<stop offset="0.249" stop-color="#724EC9"/>
<stop offset="0.4275" stop-color="#6143A8"/>
<stop offset="0.6294" stop-color="#49347A"/>
<stop offset="0.8478" stop-color="#2A2141"/>
<stop offset="1" stop-color="#121214"/>
</linearGradient>
</defs>
</svg>
