<svg width="29" height="28" viewBox="0 0 29 28" fill="none" xmlns="http://www.w3.org/2000/svg">
<g clip-path="url(#clip0_2_7746)">
<path d="M8.97327 16.5V18.5" stroke="#E1E1E6" stroke-width="1.5" stroke-linejoin="round"/>
<path d="M11.9733 16.5V18.5" stroke="#E1E1E6" stroke-width="1.5" stroke-linejoin="round"/>
<path d="M16.1399 8.17834H21.9849" stroke="#E1E1E6" stroke-width="1.5" stroke-linejoin="round"/>
<path d="M8.97327 7V9" stroke="#E1E1E6" stroke-width="1.5" stroke-linejoin="round"/>
<path d="M11.9733 7V9" stroke="#E1E1E6" stroke-width="1.5" stroke-linejoin="round"/>
<path d="M23.7216 3.5H6.22156C5.25506 3.5 4.47156 4.2835 4.47156 5.25V11.0833C4.47156 12.0498 5.25506 12.8333 6.22156 12.8333H23.7216C24.6881 12.8333 25.4716 12.0498 25.4716 11.0833V5.25C25.4716 4.2835 24.6881 3.5 23.7216 3.5Z" stroke="#8257E5" stroke-width="1.5" stroke-linecap="round" stroke-linejoin="round"/>
<path d="M13.8065 22.9167H14.5565V21.4167H13.8065V22.9167ZM6.21155 22.1667L6.20251 22.9167H6.21155V22.1667ZM6.21155 13.5717C6.62576 13.5717 6.96155 13.2359 6.96155 12.8217C6.96155 12.4074 6.62576 12.0717 6.21155 12.0717V13.5717ZM13.8065 21.4167H6.22321V22.9167H13.8065V21.4167ZM6.22321 21.4167H6.21155V22.9167H6.22321V21.4167ZM6.22058 21.4167C5.65442 21.4099 5.21155 20.9542 5.21155 20.4167H3.71155C3.71155 21.7925 4.83201 22.9001 6.20251 22.9166L6.22058 21.4167ZM5.21155 20.4167V14.5833H3.71155V20.4167H5.21155ZM5.21155 14.5833V14.5717H3.71155V14.5833H5.21155ZM5.21155 14.5717C5.21155 14.0175 5.65743 13.5717 6.21155 13.5717V12.0717C4.829 12.0717 3.71155 13.1891 3.71155 14.5717H5.21155Z" fill="#8257E5"/>
<path d="M18.8115 20.8017L22.9415 16.66H22.9299C23.3849 16.1933 24.1199 16.1933 24.5749 16.6483L26.2665 18.34C26.7215 18.795 26.7215 19.53 26.2665 19.985H26.2549L22.1132 24.115V24.1033C21.8915 24.3133 21.5882 24.4417 21.2849 24.4417H18.4149V21.5717H18.4137C18.4137 21.2567 18.5304 20.965 18.752 20.7433L18.8115 20.8017Z" stroke="#E1E1E6" stroke-width="1.5" stroke-linecap="round" stroke-linejoin="round"/>
</g>
<defs>
<clipPath id="clip0_2_7746">
<rect width="28" height="28" fill="white" transform="translate(0.973206)"/>
</clipPath>
</defs>
</svg>
