<svg width="78" height="16" viewBox="0 0 78 16" fill="none" xmlns="http://www.w3.org/2000/svg">
<g filter="url(#filter0_d_1445_107)">
<path fill-rule="evenodd" clip-rule="evenodd" d="M29.7517 1.04602L31.3279 1L26.2426 13H24.5858L29.7517 1.04602ZM23.4811 2.28853H14.8982V6.51097H22.3651C22.4457 6.51097 22.5147 6.52248 22.5952 6.55699C22.6758 6.59151 22.7333 6.63753 22.7793 6.68355L23.297 7.20129C23.297 7.20129 23.4006 7.31634 23.4236 7.38537C23.4581 7.4544 23.4696 7.52344 23.4696 7.60397V11.8379C23.4696 11.9185 23.4581 11.9875 23.4236 12.0565C23.3891 12.1255 23.3546 12.1831 23.297 12.2406L22.7793 12.7698C22.7793 12.7698 22.6643 12.8734 22.5952 12.8964C22.5262 12.9309 22.4457 12.9424 22.3651 12.9424H13.7592V11.9069H22.3306V7.55795H14.8637C14.7831 7.55795 14.7141 7.54645 14.6336 7.51193C14.5645 7.47741 14.4955 7.4429 14.4495 7.38537L13.9548 6.87914C13.9548 6.87914 13.8512 6.76409 13.8282 6.69506C13.7937 6.62602 13.7822 6.54549 13.7822 6.46495V2.33456C13.7822 2.26552 13.7937 2.18499 13.8167 2.11596C13.8397 2.04692 13.8857 1.9894 13.9433 1.93187L14.461 1.40263C14.461 1.40263 14.5761 1.29908 14.6451 1.27607C14.7141 1.24155 14.7947 1.23005 14.8752 1.23005H23.4811V2.27703V2.28853ZM10.3078 12.9194L7.58102 7.92613H2.15053V12.9194H1V1.25307H10.0201C10.1007 1.25307 10.1812 1.26458 10.2502 1.2991C10.3193 1.33361 10.3883 1.36813 10.4458 1.42565L10.9636 1.9549C10.9636 1.9549 11.0556 2.06995 11.0786 2.15049C11.1016 2.21952 11.1131 2.30005 11.1131 2.36909V6.83313C11.1131 6.9827 11.0556 7.13227 10.9636 7.24732L10.4458 7.77657C10.4458 7.77657 10.3193 7.88011 10.2502 7.90312C10.1812 7.92613 10.1007 7.94914 10.0201 7.94914H8.81208L11.5503 12.9424H10.2963L10.3078 12.9194ZM2.15053 2.28855V6.89066H9.99712V2.28855H2.15053ZM56.214 2.49564C56.3291 2.61069 56.4211 2.73725 56.4786 2.88682C56.5362 3.03639 56.5707 3.18596 56.5707 3.34703V7.35086C56.5707 7.51194 56.5362 7.66151 56.4786 7.81108C56.4211 7.96064 56.3291 8.0872 56.214 8.19075L55.1555 9.24924C55.0405 9.36429 54.9139 9.45633 54.7643 9.51386C54.6148 9.57138 54.4652 9.6059 54.3041 9.6059H47.5505V12.9424H45.238V1.1035H54.3041C54.4652 1.1035 54.6148 1.12651 54.7643 1.19554C54.9139 1.25307 55.0405 1.34511 55.1555 1.46016L56.214 2.50714V2.49564ZM54.2466 7.47742V3.19746H47.562V7.47742H54.2466ZM41.3717 1.1035H43.9029H43.9144L41.1646 7.01721L43.9144 12.9309H41.3832L39.1512 7.83409H36.8617L34.6297 12.9309H32.0985L34.8483 7.01721L32.0985 1.1035H34.6297L36.8502 6.20034H39.1397L41.3717 1.1035Z" fill="white"/>
<path d="M64.344 6.81345V4.83538C64.344 4.66962 64.3882 4.52596 64.4655 4.39335C64.5429 4.26074 64.6534 4.15023 64.7749 4.07288C64.9075 3.99552 65.0623 3.95132 65.228 3.95132H68.7753C68.8526 3.95132 68.919 3.92922 68.9742 3.87397C69.0295 3.81871 69.0626 3.75241 69.0626 3.664V2.42632C69.0626 2.34897 69.0295 2.28266 68.9742 2.22741C68.919 2.17216 68.8526 2.139 68.7753 2.139H65.228C65.1507 2.139 65.0844 2.17216 65.0181 2.22741C64.9628 2.28266 64.9407 2.34897 64.9407 2.42632V2.63629H64.344V2.42632C64.344 2.26056 64.3882 2.1169 64.4655 1.9843C64.5429 1.85169 64.6534 1.74118 64.7749 1.66382C64.9075 1.57542 65.0623 1.54227 65.228 1.54227H68.7753C68.9411 1.54227 69.0847 1.58647 69.2173 1.66382C69.3499 1.74118 69.4604 1.85169 69.5378 1.9843C69.6262 2.1169 69.6593 2.26056 69.6593 2.42632V3.664C69.6593 3.82976 69.6151 3.97342 69.5378 4.10603C69.4604 4.23864 69.3499 4.34915 69.2173 4.4265C69.0847 4.50386 68.9411 4.54806 68.7753 4.54806H65.228C65.1507 4.54806 65.0844 4.58121 65.0181 4.63646C64.9628 4.69172 64.9407 4.75802 64.9407 4.83538V5.9294C64.9407 6.00675 64.9628 6.07306 65.0181 6.13936C65.0733 6.19461 65.1396 6.21671 65.228 6.21671H69.6593V6.81345H64.344Z" fill="white"/>
<path d="M71.2948 6.81342C71.1291 6.81342 70.9854 6.76922 70.8528 6.69186C70.7202 6.61451 70.6207 6.504 70.5434 6.38245C70.466 6.24984 70.4218 6.09513 70.4218 5.94042V2.42629C70.4218 2.26053 70.466 2.11687 70.5434 1.98426C70.6207 1.85166 70.7312 1.74115 70.8528 1.66379C70.9854 1.58644 71.1401 1.54224 71.2948 1.54224H74.8089C74.9747 1.54224 75.1184 1.58644 75.251 1.66379C75.3836 1.74115 75.4941 1.85166 75.5714 1.98426C75.6488 2.11687 75.693 2.26053 75.693 2.42629V5.94042C75.693 6.10618 75.6488 6.24984 75.5714 6.38245C75.4941 6.51505 75.3836 6.61451 75.251 6.69186C75.1184 6.76922 74.9747 6.81342 74.8089 6.81342H71.2948ZM71.2948 6.21668H74.8089C74.8863 6.21668 74.9526 6.19458 75.0079 6.13933C75.0631 6.08408 75.0963 6.01777 75.0963 5.92937V2.42629C75.0963 2.34894 75.0631 2.28263 75.0079 2.22738C74.9526 2.17213 74.8863 2.13897 74.8089 2.13897H71.2948C71.2175 2.13897 71.1512 2.17213 71.0849 2.22738C71.0296 2.28263 71.0075 2.34894 71.0075 2.42629V5.94042C71.0075 6.01777 71.0296 6.08408 71.0849 6.15038C71.1401 6.20563 71.2064 6.22774 71.2948 6.22774V6.21668Z" fill="white"/>
<path d="M64.344 12.9907V11.0126C64.344 10.8469 64.3882 10.7032 64.4656 10.5706C64.5429 10.438 64.6534 10.3275 64.775 10.2501C64.9076 10.1728 65.0623 10.1286 65.228 10.1286H68.7753C68.8527 10.1286 68.919 10.1065 68.9742 10.0512C69.0295 9.99596 69.0626 9.92965 69.0626 9.84125V8.60357C69.0626 8.52621 69.0295 8.45991 68.9742 8.40466C68.919 8.3494 68.8527 8.31625 68.7753 8.31625H65.228C65.1507 8.31625 65.0844 8.3494 65.0181 8.40466C64.9628 8.45991 64.9407 8.52621 64.9407 8.60357V8.81353H64.344V8.60357C64.344 8.43781 64.3882 8.29415 64.4656 8.16154C64.5429 8.02893 64.6534 7.91843 64.775 7.84107C64.9076 7.75267 65.0623 7.71951 65.228 7.71951H68.7753C68.9411 7.71951 69.0847 7.76372 69.2174 7.84107C69.35 7.91843 69.4605 8.02893 69.5378 8.16154C69.6262 8.29415 69.6594 8.43781 69.6594 8.60357V9.84125C69.6594 10.007 69.6152 10.1507 69.5378 10.2833C69.4605 10.4159 69.35 10.5264 69.2174 10.6037C69.0847 10.6811 68.9411 10.7253 68.7753 10.7253H65.228C65.1507 10.7253 65.0844 10.7585 65.0181 10.8137C64.9628 10.869 64.9407 10.9353 64.9407 11.0126V12.1066C64.9407 12.184 64.9628 12.2503 65.0181 12.3166C65.0733 12.3719 65.1396 12.394 65.228 12.394H69.6594V12.9907H64.344Z" fill="white"/>
<path d="M71.2841 12.9907C71.1183 12.9907 70.9636 12.9465 70.831 12.8691C70.6984 12.7807 70.5879 12.6813 70.5105 12.5487C70.4332 12.4161 70.3889 12.2614 70.3889 12.1066V11.9851H70.9967V12.1066C70.9967 12.184 71.0188 12.2503 71.0741 12.3166C71.1293 12.3719 71.1956 12.394 71.2841 12.394H74.8313C74.9087 12.394 74.975 12.3719 75.0302 12.3166C75.0855 12.2614 75.1186 12.195 75.1186 12.1066V10.88C75.1186 10.8027 75.0855 10.7364 75.0302 10.6811C74.975 10.6258 74.9087 10.5927 74.8313 10.5927H71.4056V9.99596H74.5993C74.6766 9.99596 74.7429 9.97386 74.7982 9.9186C74.8534 9.86335 74.8866 9.79705 74.8866 9.70864V8.60357C74.8866 8.52621 74.8534 8.45991 74.7982 8.40466C74.7429 8.3494 74.6766 8.31625 74.5993 8.31625H71.2841C71.2067 8.31625 71.1404 8.3494 71.0741 8.40466C71.0188 8.45991 70.9967 8.52621 70.9967 8.60357V8.79143H70.3889V8.60357C70.3889 8.43781 70.4332 8.29415 70.5105 8.16154C70.5989 8.02893 70.6984 7.91843 70.831 7.84107C70.9636 7.75267 71.1183 7.71951 71.2841 7.71951H74.5993C74.765 7.71951 74.9087 7.76372 75.0413 7.84107C75.1739 7.91843 75.2844 8.02893 75.3618 8.16154C75.4391 8.29415 75.4833 8.43781 75.4833 8.60357V9.70864C75.4833 9.77494 75.4833 9.84125 75.4502 9.9186C75.4391 9.98491 75.417 10.0402 75.3949 10.0954C75.5165 10.217 75.6049 10.3385 75.638 10.4822C75.6822 10.6258 75.7154 10.7585 75.7154 10.88V12.1066C75.7154 12.2724 75.6712 12.4161 75.5938 12.5487C75.5165 12.6813 75.406 12.7918 75.2734 12.8691C75.1407 12.9465 74.9971 12.9907 74.8313 12.9907H71.2841Z" fill="white"/>
</g>
<defs>
<filter id="filter0_d_1445_107" x="0.288425" y="0.288425" width="77.5617" height="14.8463" filterUnits="userSpaceOnUse" color-interpolation-filters="sRGB">
<feFlood flood-opacity="0" result="BackgroundImageFix"/>
<feColorMatrix in="SourceAlpha" type="matrix" values="0 0 0 0 0 0 0 0 0 0 0 0 0 0 0 0 0 0 127 0" result="hardAlpha"/>
<feOffset dx="0.711575" dy="0.711575"/>
<feGaussianBlur stdDeviation="0.711575"/>
<feComposite in2="hardAlpha" operator="out"/>
<feColorMatrix type="matrix" values="0 0 0 0 0 0 0 0 0 0 0 0 0 0 0 0 0 0 0.5 0"/>
<feBlend mode="normal" in2="BackgroundImageFix" result="effect1_dropShadow_1445_107"/>
<feBlend mode="normal" in="SourceGraphic" in2="effect1_dropShadow_1445_107" result="shape"/>
</filter>
</defs>
</svg>
