<svg width="75" height="12" viewBox="0 0 75 12" fill="none" xmlns="http://www.w3.org/2000/svg">
<path fill-rule="evenodd" clip-rule="evenodd" d="M28.7517 0.0460211L30.3279 0L25.2426 12H23.5858L28.7517 0.0460211ZM22.4811 1.28853H13.8982V5.51097H21.3651C21.4457 5.51097 21.5147 5.52248 21.5952 5.55699C21.6758 5.59151 21.7333 5.63753 21.7793 5.68355L22.297 6.20129C22.297 6.20129 22.4006 6.31634 22.4236 6.38537C22.4581 6.4544 22.4696 6.52344 22.4696 6.60397V10.8379C22.4696 10.9185 22.4581 10.9875 22.4236 11.0565C22.3891 11.1255 22.3546 11.1831 22.297 11.2406L21.7793 11.7698C21.7793 11.7698 21.6643 11.8734 21.5952 11.8964C21.5262 11.9309 21.4457 11.9424 21.3651 11.9424H12.7592V10.9069H21.3306V6.55795H13.8637C13.7831 6.55795 13.7141 6.54645 13.6336 6.51193C13.5645 6.47741 13.4955 6.4429 13.4495 6.38537L12.9548 5.87914C12.9548 5.87914 12.8512 5.76409 12.8282 5.69506C12.7937 5.62602 12.7822 5.54549 12.7822 5.46495V1.33456C12.7822 1.26552 12.7937 1.18499 12.8167 1.11596C12.8397 1.04692 12.8857 0.989397 12.9433 0.931871L13.461 0.402628C13.461 0.402628 13.5761 0.299081 13.6451 0.27607C13.7141 0.241554 13.7947 0.230049 13.8752 0.230049H22.4811V1.27703V1.28853ZM9.30777 11.9194L6.58102 6.92613H1.15053V11.9194H0V0.253075H9.02014C9.10067 0.253075 9.18121 0.26458 9.25024 0.299096C9.31927 0.333612 9.3883 0.368127 9.44583 0.425654L9.96357 0.954896C9.96357 0.954896 10.0556 1.06995 10.0786 1.15049C10.1016 1.21952 10.1131 1.30005 10.1131 1.36909V5.83313C10.1131 5.9827 10.0556 6.13227 9.96357 6.24732L9.44583 6.77657C9.44583 6.77657 9.31927 6.88011 9.25024 6.90312C9.18121 6.92613 9.10067 6.94914 9.02014 6.94914H7.81208L10.5503 11.9424H9.29626L9.30777 11.9194ZM1.15053 1.28855V5.89066H8.99712V1.28855H1.15053ZM55.214 1.49564C55.3291 1.61069 55.4211 1.73725 55.4786 1.88682C55.5362 2.03639 55.5707 2.18596 55.5707 2.34703V6.35086C55.5707 6.51194 55.5362 6.66151 55.4786 6.81108C55.4211 6.96064 55.3291 7.0872 55.214 7.19075L54.1555 8.24924C54.0405 8.36429 53.9139 8.45633 53.7644 8.51386C53.6148 8.57138 53.4652 8.6059 53.3041 8.6059H46.5505V11.9424H44.238V0.1035H53.3041C53.4652 0.1035 53.6148 0.126511 53.7644 0.195543C53.9139 0.253069 54.0405 0.345111 54.1555 0.460164L55.214 1.50714V1.49564ZM53.2466 6.47742V2.19746H46.562V6.47742H53.2466ZM40.3717 0.1035H42.9029H42.9144L40.1646 6.01721L42.9144 11.9309H40.3832L38.1512 6.83409H35.8617L33.6297 11.9309H31.0985L33.8483 6.01721L31.0985 0.1035H33.6297L35.8502 5.20034H38.1397L40.3717 0.1035Z" fill="white"/>
<path d="M63.344 5.81345V3.83538C63.344 3.66962 63.3882 3.52596 63.4655 3.39335C63.5429 3.26074 63.6534 3.15023 63.7749 3.07288C63.9075 2.99552 64.0623 2.95132 64.228 2.95132H67.7753C67.8526 2.95132 67.919 2.92922 67.9742 2.87397C68.0295 2.81871 68.0626 2.75241 68.0626 2.664V1.42632C68.0626 1.34897 68.0295 1.28266 67.9742 1.22741C67.919 1.17216 67.8526 1.139 67.7753 1.139H64.228C64.1507 1.139 64.0844 1.17216 64.0181 1.22741C63.9628 1.28266 63.9407 1.34897 63.9407 1.42632V1.63629H63.344V1.42632C63.344 1.26056 63.3882 1.1169 63.4655 0.984295C63.5429 0.851687 63.6534 0.74118 63.7749 0.663825C63.9075 0.575419 64.0623 0.542267 64.228 0.542267H67.7753C67.9411 0.542267 68.0847 0.58647 68.2173 0.663825C68.3499 0.74118 68.4604 0.851687 68.5378 0.984295C68.6262 1.1169 68.6593 1.26056 68.6593 1.42632V2.664C68.6593 2.82976 68.6151 2.97342 68.5378 3.10603C68.4604 3.23864 68.3499 3.34915 68.2173 3.4265C68.0847 3.50386 67.9411 3.54806 67.7753 3.54806H64.228C64.1507 3.54806 64.0844 3.58121 64.0181 3.63646C63.9628 3.69172 63.9407 3.75802 63.9407 3.83538V4.9294C63.9407 5.00675 63.9628 5.07306 64.0181 5.13936C64.0733 5.19461 64.1396 5.21671 64.228 5.21671H68.6593V5.81345H63.344Z" fill="white"/>
<path d="M70.2948 5.81342C70.1291 5.81342 69.9854 5.76922 69.8528 5.69186C69.7202 5.61451 69.6207 5.504 69.5434 5.38245C69.466 5.24984 69.4218 5.09513 69.4218 4.94042V1.42629C69.4218 1.26053 69.466 1.11687 69.5434 0.984264C69.6207 0.851656 69.7312 0.741149 69.8528 0.663794C69.9854 0.586439 70.1401 0.542236 70.2948 0.542236H73.8089C73.9747 0.542236 74.1184 0.586439 74.251 0.663794C74.3836 0.741149 74.4941 0.851656 74.5714 0.984264C74.6488 1.11687 74.693 1.26053 74.693 1.42629V4.94042C74.693 5.10618 74.6488 5.24984 74.5714 5.38245C74.4941 5.51505 74.3836 5.61451 74.251 5.69186C74.1184 5.76922 73.9747 5.81342 73.8089 5.81342H70.2948ZM70.2948 5.21668H73.8089C73.8863 5.21668 73.9526 5.19458 74.0079 5.13933C74.0631 5.08408 74.0963 5.01777 74.0963 4.92937V1.42629C74.0963 1.34894 74.0631 1.28263 74.0079 1.22738C73.9526 1.17213 73.8863 1.13897 73.8089 1.13897H70.2948C70.2175 1.13897 70.1512 1.17213 70.0849 1.22738C70.0296 1.28263 70.0075 1.34894 70.0075 1.42629V4.94042C70.0075 5.01777 70.0296 5.08408 70.0849 5.15038C70.1401 5.20563 70.2064 5.22773 70.2948 5.22773V5.21668Z" fill="white"/>
<path d="M63.344 11.9907V10.0126C63.344 9.84686 63.3882 9.7032 63.4656 9.5706C63.5429 9.43799 63.6534 9.32748 63.775 9.25012C63.9076 9.17277 64.0623 9.12857 64.228 9.12857H67.7753C67.8527 9.12857 67.919 9.10647 67.9742 9.05121C68.0295 8.99596 68.0626 8.92965 68.0626 8.84125V7.60357C68.0626 7.52621 68.0295 7.45991 67.9742 7.40466C67.919 7.3494 67.8527 7.31625 67.7753 7.31625H64.228C64.1507 7.31625 64.0844 7.3494 64.0181 7.40466C63.9628 7.45991 63.9407 7.52621 63.9407 7.60357V7.81353H63.344V7.60357C63.344 7.43781 63.3882 7.29415 63.4656 7.16154C63.5429 7.02893 63.6534 6.91843 63.775 6.84107C63.9076 6.75267 64.0623 6.71951 64.228 6.71951H67.7753C67.9411 6.71951 68.0847 6.76372 68.2174 6.84107C68.35 6.91843 68.4605 7.02893 68.5378 7.16154C68.6262 7.29415 68.6594 7.43781 68.6594 7.60357V8.84125C68.6594 9.00701 68.6152 9.15067 68.5378 9.28328C68.4605 9.41589 68.35 9.52639 68.2174 9.60375C68.0847 9.6811 67.9411 9.7253 67.7753 9.7253H64.228C64.1507 9.7253 64.0844 9.75846 64.0181 9.81371C63.9628 9.86896 63.9407 9.93527 63.9407 10.0126V11.1066C63.9407 11.184 63.9628 11.2503 64.0181 11.3166C64.0733 11.3719 64.1396 11.394 64.228 11.394H68.6594V11.9907H63.344Z" fill="white"/>
<path d="M70.2841 11.9907C70.1183 11.9907 69.9636 11.9465 69.831 11.8691C69.6984 11.7807 69.5879 11.6813 69.5105 11.5487C69.4332 11.4161 69.3889 11.2614 69.3889 11.1066V10.9851H69.9967V11.1066C69.9967 11.184 70.0188 11.2503 70.0741 11.3166C70.1293 11.3719 70.1956 11.394 70.2841 11.394H73.8313C73.9087 11.394 73.975 11.3719 74.0302 11.3166C74.0855 11.2614 74.1186 11.195 74.1186 11.1066V9.88001C74.1186 9.80266 74.0855 9.73636 74.0302 9.6811C73.975 9.62585 73.9087 9.5927 73.8313 9.5927H70.4056V8.99596H73.5993C73.6766 8.99596 73.7429 8.97386 73.7982 8.9186C73.8534 8.86335 73.8866 8.79705 73.8866 8.70864V7.60357C73.8866 7.52621 73.8534 7.45991 73.7982 7.40466C73.7429 7.3494 73.6766 7.31625 73.5993 7.31625H70.2841C70.2067 7.31625 70.1404 7.3494 70.0741 7.40466C70.0188 7.45991 69.9967 7.52621 69.9967 7.60357V7.79143H69.3889V7.60357C69.3889 7.43781 69.4332 7.29415 69.5105 7.16154C69.5989 7.02893 69.6984 6.91843 69.831 6.84107C69.9636 6.75267 70.1183 6.71951 70.2841 6.71951H73.5993C73.765 6.71951 73.9087 6.76372 74.0413 6.84107C74.1739 6.91843 74.2844 7.02893 74.3618 7.16154C74.4391 7.29415 74.4833 7.43781 74.4833 7.60357V8.70864C74.4833 8.77494 74.4833 8.84125 74.4502 8.9186C74.4391 8.98491 74.417 9.04016 74.3949 9.09541C74.5165 9.21697 74.6049 9.33853 74.638 9.48219C74.6822 9.62585 74.7154 9.75846 74.7154 9.88001V11.1066C74.7154 11.2724 74.6712 11.4161 74.5938 11.5487C74.5165 11.6813 74.406 11.7918 74.2734 11.8691C74.1407 11.9465 73.9971 11.9907 73.8313 11.9907H70.2841Z" fill="white"/>
</svg>
